<?xml version="1.0" encoding="UTF-8" standalone="no"?>
<!-- Created with Inkscape (http://www.inkscape.org/) -->

<svg
   xmlns:svg="http://www.w3.org/2000/svg"
   xmlns="http://www.w3.org/2000/svg"
   version="1.1"
   width="718.59705"
   height="292"
   id="svg2"
   style="display:inline">
  <defs
     id="defs4">
    <marker
       refX="0"
       refY="0"
       orient="auto"
       id="Arrow2Lend"
       style="overflow:visible">
      <path
         d="M 8.7185878,4.0337352 -2.2072895,0.01601326 8.7185884,-4.0017078 c -1.7454984,2.3720609 -1.7354408,5.6174519 -6e-7,8.035443 z"
         transform="matrix(-1.1,0,0,-1.1,-1.1,0)"
         id="path3691"
         style="font-size:12px;fill-rule:evenodd;stroke-width:0.625;stroke-linejoin:round" />
    </marker>
    <marker
       refX="0"
       refY="0"
       orient="auto"
       id="Arrow2Lstart"
       style="overflow:visible">
      <path
         d="M 8.7185878,4.0337352 -2.2072895,0.01601326 8.7185884,-4.0017078 c -1.7454984,2.3720609 -1.7354408,5.6174519 -6e-7,8.035443 z"
         transform="matrix(1.1,0,0,1.1,1.1,0)"
         id="path3688"
         style="font-size:12px;fill-rule:evenodd;stroke-width:0.625;stroke-linejoin:round" />
    </marker>
    <marker
       refX="0"
       refY="0"
       orient="auto"
       id="Arrow1Lstart"
       style="overflow:visible">
      <path
         d="M 0,0 5,-5 -12.5,0 5,5 0,0 z"
         transform="matrix(0.8,0,0,0.8,10,0)"
         id="path3670"
         style="fill-rule:evenodd;stroke:#000000;stroke-width:1pt;marker-start:none" />
    </marker>
    <marker
       refX="0"
       refY="0"
       orient="auto"
       id="Arrow2Lstart-1"
       style="overflow:visible">
      <path
         d="M 8.7185878,4.0337352 -2.2072895,0.01601326 8.7185884,-4.0017078 c -1.7454984,2.3720609 -1.7354408,5.6174519 -6e-7,8.035443 z"
         transform="matrix(1.1,0,0,1.1,1.1,0)"
         id="path3688-7"
         style="font-size:12px;fill-rule:evenodd;stroke-width:0.625;stroke-linejoin:round" />
    </marker>
    <marker
       refX="0"
       refY="0"
       orient="auto"
       id="Arrow2Lend-4"
       style="overflow:visible">
      <path
         d="M 8.7185878,4.0337352 -2.2072895,0.01601326 8.7185884,-4.0017078 c -1.7454984,2.3720609 -1.7354408,5.6174519 -6e-7,8.035443 z"
         transform="matrix(-1.1,0,0,-1.1,-1.1,0)"
         id="path3691-0"
         style="font-size:12px;fill-rule:evenodd;stroke-width:0.625;stroke-linejoin:round" />
    </marker>
  </defs>
  <g
     transform="translate(45.693961,0.50000009)"
     id="layer3"
     style="display:inline">
    <path
       d="m -45.193961,277.36294 718.097041,0"
       id="path4493"
       style="color:#000000;fill:none;stroke:#b4b4b4;stroke-width:1;stroke-linecap:butt;stroke-linejoin:miter;stroke-miterlimit:4;stroke-opacity:1;stroke-dasharray:none;stroke-dashoffset:0;marker:none;visibility:visible;display:inline;overflow:visible;enable-background:accumulate" />
    <path
       d="m 123.23861,291 0,-291"
       id="path4495"
       style="color:#000000;fill:none;stroke:#b4b4b4;stroke-width:1;stroke-linecap:butt;stroke-linejoin:miter;stroke-miterlimit:4;stroke-opacity:1;stroke-dasharray:none;stroke-dashoffset:0;marker:none;visibility:visible;display:inline;overflow:visible;enable-background:accumulate" />
    <path
       d="m 272.23611,291 0,-291"
       id="path4497"
       style="color:#000000;fill:none;stroke:#b4b4b4;stroke-width:1;stroke-linecap:butt;stroke-linejoin:miter;stroke-miterlimit:4;stroke-opacity:1;stroke-dasharray:none;stroke-dashoffset:0;marker:none;visibility:visible;display:inline;overflow:visible;enable-background:accumulate" />
    <path
       d="m 672.90308,130.38575 -718.097041,0"
       id="path4499"
       style="color:#000000;fill:none;stroke:#b4b4b4;stroke-width:1;stroke-linecap:butt;stroke-linejoin:miter;stroke-miterlimit:4;stroke-opacity:1;stroke-dasharray:none;stroke-dashoffset:0;marker:none;visibility:visible;display:inline;overflow:visible;enable-background:accumulate" />
    <path
       d="m 421.23361,291 0,-291.000000087890612"
       id="path4497-8"
       style="color:#000000;fill:none;stroke:#b4b4b4;stroke-width:1;stroke-linecap:butt;stroke-linejoin:miter;stroke-miterlimit:4;stroke-opacity:1;stroke-dasharray:none;stroke-dashoffset:0;marker:none;visibility:visible;display:inline;overflow:visible;enable-background:accumulate" />
    <g
       transform="translate(78.518561,-31.11552)"
       id="text4673"
       style="font-size:31.97262001px;font-style:normal;font-variant:normal;font-weight:normal;font-stretch:normal;text-align:start;line-height:125%;writing-mode:lr-tb;text-anchor:start;fill:#000000;fill-opacity:1;stroke:none;font-family:Gisha;-inkscape-font-specification:Gisha">
      <path
         d="m 272.81507,119.5593 0,5.21428 -1.42846,0 0,-3.99658 c -1e-5,-0.79618 -0.10669,-1.3517 -0.32004,-1.66654 -0.21336,-0.31483 -0.58544,-0.47224 -1.11623,-0.47225 -0.29663,1e-5 -0.56853,0.0677 -0.81571,0.20295 -0.24719,0.13531 -0.5295,0.37469 -0.84693,0.71814 l 0,5.21428 -1.42066,0 0,-7.18135 1.42066,0 0,0.94451 c 0.72334,-0.72334 1.43106,-1.08501 2.12318,-1.08501 0.91067,0 1.6158,0.43193 2.11538,1.29576 0.75976,-0.87424 1.55335,-1.31137 2.38077,-1.31137 0.69731,0 1.27104,0.25499 1.72118,0.76497 0.45013,0.50998 0.67519,1.28796 0.67521,2.33393 l 0,4.23856 -1.42066,0 0,-4.25417 c -1e-5,-0.59844 -0.1223,-1.05638 -0.36688,-1.37382 -0.24459,-0.31743 -0.59585,-0.47615 -1.05378,-0.47616 -0.58805,10e-6 -1.13706,0.29663 -1.64703,0.88987 z"
         id="path4632"
         style="font-size:15.98631001px;font-family:Gill Sans MT;-inkscape-font-specification:Gill Sans MT" />
      <g
         id="text4729"
         style="font-size:15.88836956px;line-height:125%;fill:#000000;font-family:Gill Sans MT;-inkscape-font-specification:Gill Sans MT">
        <path
           d="m 261.37481,118.31424 0.0931,0 c 0.67753,1e-5 1.19343,-0.13964 1.54772,-0.41893 0.35428,-0.27928 0.53142,-0.68528 0.53142,-1.218 0,-0.48099 -0.17197,-0.87148 -0.5159,-1.17146 -0.34395,-0.29997 -0.7952,-0.44996 -1.35377,-0.44996 -0.56375,0 -1.18956,0.17585 -1.87744,0.52754 l 0,-1.48178 c 0.63098,-0.31548 1.31886,-0.47322 2.06363,-0.47324 0.99819,2e-5 1.78562,0.2612 2.36231,0.78356 0.57667,0.52238 0.86501,1.23612 0.86501,2.14121 0,0.54824 -0.1112,1.00984 -0.33359,1.3848 -0.2224,0.37498 -0.57668,0.69693 -1.06285,0.96587 0.4241,0.16551 0.73442,0.36851 0.93096,0.609 0.19653,0.2405 0.34911,0.53143 0.45773,0.87278 0.1086,0.34135 0.16291,0.70339 0.16291,1.08612 0,0.94647 -0.31549,1.72874 -0.94647,2.34679 -0.63099,0.61805 -1.42748,0.92708 -2.38946,0.92708 -0.82235,0 -1.61625,-0.19912 -2.38171,-0.59737 l 0,-1.69124 c 0.81718,0.51203 1.61108,0.76804 2.38171,0.76804 0.52236,0 0.94259,-0.15516 1.26067,-0.46548 0.31807,-0.31032 0.47711,-0.72149 0.47712,-1.23352 -1e-5,-0.42927 -0.13189,-0.80424 -0.39566,-1.12491 -0.15517,-0.18101 -0.32713,-0.31419 -0.51591,-0.39953 -0.18878,-0.0853 -0.59607,-0.1668 -1.22188,-0.24438 l -0.13965,-0.0155 z"
           id="path4839" />
      </g>
    </g>
    <path
       d="m 298.95575,40.908829 16.85867,0 0,16.858671 -16.85867,0 0,-16.858671 z"
       id="rect4677"
       style="font-size:20px;color:#000000;fill:#59c167;fill-opacity:1;fill-rule:nonzero;stroke:none;stroke-width:1;marker:none;visibility:visible;display:inline;overflow:visible;enable-background:accumulate" />
    <g
       transform="translate(123.43977,0)"
       id="text4679"
       style="font-size:12px;font-style:normal;font-variant:normal;font-weight:normal;font-stretch:normal;text-align:start;line-height:125%;writing-mode:lr-tb;text-anchor:start;fill:#000000;fill-opacity:1;stroke:none;font-family:Gisha;-inkscape-font-specification:Gisha">
      <g
         id="text4679-5"
         style="font-size:16.86725998px;line-height:125%;fill:#000000;display:inline;font-family:Gisha;-inkscape-font-specification:Gisha">
        <path
           d="m 201.23429,55.27549 1.63895,-11.505646 1.35894,0 c 2.13036,1.2e-5 3.78854,0.512014 4.97452,1.536008 1.18597,1.024014 1.77896,2.436481 1.77897,4.237405 -1e-5,1.735048 -0.52162,3.124179 -1.56483,4.167399 -1.04323,1.043223 -2.52296,1.564834 -4.43919,1.564834 z m 2.98142,-10.122003 -1.22716,8.754832 1.38364,0 c 1.31226,2e-6 2.2841,-0.157854 2.91553,-0.473568 0.63142,-0.31571 1.13244,-0.813985 1.50307,-1.494828 0.37061,-0.680836 0.55591,-1.496196 0.55592,-2.446082 -1e-5,-1.361673 -0.46122,-2.425484 -1.38364,-3.191437 -0.92243,-0.765935 -1.99585,-1.148907 -3.22026,-1.148917 z"
           id="path4842"
           style="font-style:italic;font-family:Gill Sans MT;-inkscape-font-specification:Gill Sans MT Italic" />
        <path
           d="m 218.19214,53.298858 -0.2059,1.36717 c -0.76869,0.565537 -1.61151,0.848305 -2.52844,0.848305 -0.95537,0 -1.72269,-0.333557 -2.30195,-1.00067 -0.57927,-0.667112 -0.8689,-1.555223 -0.8689,-2.664335 0,-1.235391 0.34729,-2.274494 1.04185,-3.117314 0.69457,-0.842806 1.54424,-1.264213 2.54904,-1.264221 0.76868,8e-6 1.40834,0.29513 1.91898,0.885367 0.51062,0.59025 0.76593,1.352077 0.76594,2.285481 -1e-5,0.230611 -0.0165,0.466708 -0.0494,0.708293 l -4.72744,0 c -0.0439,0.252573 -0.0659,0.494161 -0.0659,0.724765 0,0.697314 0.1908,1.247751 0.5724,1.651311 0.3816,0.403564 0.86066,0.605345 1.43718,0.605344 0.7028,1e-6 1.52365,-0.343164 2.46255,-1.029496 z m -4.18387,-2.948476 3.17085,0 c -1e-5,-0.527097 -0.11943,-0.943013 -0.35827,-1.247749 -0.23884,-0.304725 -0.57515,-0.45709 -1.0089,-0.457096 -0.8236,6e-6 -1.42483,0.568287 -1.80368,1.704845 z"
           id="path4844"
           style="font-style:italic;font-family:Gill Sans MT;-inkscape-font-specification:Gill Sans MT Italic" />
        <path
           d="m 220.62999,45.326442 c 0,-0.230597 0.081,-0.426887 0.24296,-0.588872 0.16197,-0.161963 0.35552,-0.24295 0.58064,-0.242961 0.22511,1.1e-5 0.41865,0.081 0.58063,0.242961 0.16197,0.161985 0.24296,0.358275 0.24296,0.588872 0,0.225126 -0.081,0.418671 -0.24296,0.580636 -0.16198,0.161983 -0.35552,0.24297 -0.58063,0.242961 -0.22512,9e-6 -0.41867,-0.08098 -0.58064,-0.242961 -0.16198,-0.161965 -0.24296,-0.35551 -0.24296,-0.580636 z m 1.27657,2.371958 -1.06244,7.57709 -1.43305,0 1.06244,-7.57709 z"
           id="path4846"
           style="font-style:italic;font-family:Gill Sans MT;-inkscape-font-specification:Gill Sans MT Italic" />
        <path
           d="m 225.19271,47.6984 -0.18942,1.334227 0.0329,0.03294 c 0.80712,-0.988309 1.64444,-1.482466 2.51197,-1.482474 0.58749,8e-6 1.04322,0.215515 1.36717,0.646523 0.32394,0.431022 0.48592,0.98695 0.48592,1.667783 0,0.192178 -0.0165,0.392587 -0.0494,0.601226 l -0.72477,4.776861 -1.41658,0 0.69182,-4.826277 c 0.0274,-0.170205 0.0412,-0.326688 0.0412,-0.46945 -1e-5,-0.395321 -0.0824,-0.697306 -0.24708,-0.905956 -0.16473,-0.208638 -0.37063,-0.31296 -0.6177,-0.312967 -0.14276,7e-6 -0.30336,0.0357 -0.4818,0.107068 -0.17845,0.07138 -0.36925,0.181197 -0.5724,0.329438 -0.20316,0.148254 -0.45436,0.37337 -0.75359,0.67535 -0.29925,0.30199 -0.4571,0.494163 -0.47357,0.576517 l -0.69182,4.826277 -1.41659,0 1.06244,-7.57709 z"
           id="path4848"
           style="font-style:italic;font-family:Gill Sans MT;-inkscape-font-specification:Gill Sans MT Italic" />
        <path
           d="m 234.3264,47.467793 c 0.85104,8e-6 1.53326,0.300621 2.04664,0.901839 0.51337,0.601232 0.77005,1.401492 0.77006,2.400784 -1e-5,1.383646 -0.34592,2.520208 -1.03773,3.40969 -0.69183,0.889485 -1.54288,1.334227 -2.55315,1.334227 -0.88949,0 -1.5868,-0.29924 -2.09194,-0.897721 -0.50514,-0.598479 -0.75771,-1.43031 -0.75771,-2.495497 0,-1.323241 0.34866,-2.429605 1.04597,-3.319095 0.69731,-0.889477 1.5566,-1.334219 2.57786,-1.334227 z m 0,1.128328 c -0.5875,6e-6 -1.09401,0.363761 -1.51954,1.091265 -0.42552,0.727516 -0.63829,1.588173 -0.63828,2.581976 -1e-5,0.592992 0.12765,1.076168 0.38297,1.44953 0.25531,0.373365 0.5724,0.560047 0.95125,0.560046 0.59848,1e-6 1.11048,-0.340419 1.53601,-1.02126 0.42552,-0.680837 0.63828,-1.537377 0.63829,-2.569622 -1e-5,-0.636909 -0.12355,-1.144793 -0.37062,-1.523654 -0.24708,-0.378848 -0.57378,-0.568275 -0.98008,-0.568281 z"
           id="path4850"
           style="font-style:italic;font-family:Gill Sans MT;-inkscape-font-specification:Gill Sans MT Italic" />
        <path
           d="m 240.67633,47.6984 -0.18943,1.334227 0.0329,0.03294 c 0.80712,-0.988309 1.64444,-1.482466 2.51197,-1.482474 0.58749,8e-6 1.04321,0.215515 1.36717,0.646523 0.32394,0.431022 0.48591,0.98695 0.48592,1.667783 -1e-5,0.192178 -0.0165,0.392587 -0.0494,0.601226 l -0.72477,4.776861 -1.41659,0 0.69183,-4.826277 c 0.0274,-0.170205 0.0412,-0.326688 0.0412,-0.46945 0,-0.395321 -0.0824,-0.697306 -0.24707,-0.905956 -0.16473,-0.208638 -0.37063,-0.31296 -0.6177,-0.312967 -0.14276,7e-6 -0.30336,0.0357 -0.48181,0.107068 -0.17845,0.07138 -0.36925,0.181197 -0.5724,0.329438 -0.20315,0.148254 -0.45435,0.37337 -0.75359,0.67535 -0.29924,0.30199 -0.4571,0.494163 -0.47356,0.576517 l -0.69183,4.826277 -1.41658,0 1.06244,-7.57709 z"
           id="path4852"
           style="font-style:italic;font-family:Gill Sans MT;-inkscape-font-specification:Gill Sans MT Italic" />
        <path
           d="m 252.32199,47.6984 -5.4275,11.45623 -1.52366,0 2.059,-4.332118 -1.46601,-7.124112 1.43306,0 1.04597,5.213367 2.38019,-5.213367 z"
           id="path4854"
           style="font-style:italic;font-family:Gill Sans MT;-inkscape-font-specification:Gill Sans MT Italic" />
        <path
           d="m 257.92245,53.587117 -0.16472,1.383642 c -0.65889,0.362383 -1.36169,0.543574 -2.10841,0.543574 -1.01577,0 -1.82701,-0.317085 -2.43373,-0.951254 -0.60672,-0.634168 -0.91007,-1.481099 -0.91007,-2.540796 0,-1.279316 0.45984,-2.358226 1.37952,-3.236735 0.91968,-0.878496 2.09605,-1.317747 3.52911,-1.317755 0.36238,8e-6 0.79614,0.04393 1.30129,0.131776 l -0.18943,1.268339 c -0.3569,-0.08235 -0.72203,-0.123533 -1.09538,-0.12354 -0.99382,7e-6 -1.81878,0.318464 -2.47491,0.955372 -0.65614,0.63692 -0.9842,1.380902 -0.9842,2.231947 0,0.713787 0.18531,1.275205 0.55593,1.684255 0.37061,0.409055 0.87712,0.613581 1.51953,0.61358 0.68084,10e-7 1.37266,-0.214134 2.07547,-0.642405 z"
           id="path4856"
           style="font-style:italic;font-family:Gill Sans MT;-inkscape-font-specification:Gill Sans MT Italic" />
        <path
           d="m 261.80159,43.769844 -0.72477,5.147479 0.0329,0.03294 c 0.85105,-0.988308 1.72681,-1.482466 2.62728,-1.482474 0.55455,8e-6 0.98693,0.188062 1.29716,0.564164 0.31022,0.376116 0.46533,0.882627 0.46533,1.519536 0,0.181197 -0.0137,0.367878 -0.0412,0.560046 l -0.72476,5.163951 -1.43306,0 0.72477,-5.246311 c 0.0165,-0.13177 0.0247,-0.25531 0.0247,-0.370619 0,-0.74123 -0.29375,-1.111848 -0.88124,-1.111855 -0.42828,7e-6 -0.9142,0.275911 -1.45777,0.827715 -0.54358,0.551815 -0.8236,0.877135 -0.84007,0.975962 l -0.69182,4.925108 -1.43306,0 1.62249,-11.505646 z"
           id="path4858"
           style="font-style:italic;font-family:Gill Sans MT;-inkscape-font-specification:Gill Sans MT Italic" />
        <path
           d="m 273.69432,47.6984 -1.07891,7.57709 -1.41659,0 0.13178,-1.284811 c -0.87302,0.93341 -1.70485,1.400114 -2.4955,1.400114 -0.51063,0 -0.94302,-0.182564 -1.29716,-0.547691 -0.35415,-0.365128 -0.53122,-0.885366 -0.53122,-1.560716 0,-0.192171 0.0137,-0.387088 0.0412,-0.584754 l 0.70829,-4.999232 1.43306,0 -0.7083,4.999232 c -0.022,0.164722 -0.0329,0.31846 -0.0329,0.461214 0,0.757711 0.28002,1.136565 0.84007,1.136564 0.5875,1e-6 1.34795,-0.557299 2.28136,-1.671901 l 0.69182,-4.925109 z"
           id="path4860"
           style="font-style:italic;font-family:Gill Sans MT;-inkscape-font-specification:Gill Sans MT Italic" />
        <path
           d="m 279.65716,48.258446 0,1.498946 c -0.87302,-0.664362 -1.63347,-0.996545 -2.28136,-0.996552 -0.29101,7e-6 -0.53534,0.07825 -0.73301,0.234725 -0.19766,0.15649 -0.29649,0.344544 -0.29649,0.564164 0,0.142762 0.0618,0.295127 0.18531,0.457096 0.12354,0.161979 0.51337,0.462592 1.16951,0.901838 0.65612,0.439256 1.09812,0.842818 1.32599,1.210687 0.22785,0.367876 0.34178,0.74124 0.34179,1.120092 -10e-6,0.664369 -0.221,1.207943 -0.663,1.630721 -0.442,0.42278 -1.00341,0.63417 -1.68425,0.63417 -0.84007,0 -1.71583,-0.332184 -2.62727,-0.996552 l 0.24707,-1.383643 c 0.94439,0.75222 1.72132,1.128329 2.33078,1.128328 0.28551,10e-7 0.52024,-0.07961 0.70418,-0.238843 0.18393,-0.159227 0.2759,-0.359636 0.2759,-0.601226 0,-0.181189 -0.0673,-0.366498 -0.20178,-0.555927 -0.13452,-0.189425 -0.52573,-0.509255 -1.17362,-0.959491 -0.6479,-0.450229 -1.07617,-0.851045 -1.28481,-1.202451 -0.20865,-0.351396 -0.31297,-0.705542 -0.31297,-1.062439 0,-0.653381 0.21688,-1.17911 0.65064,-1.577188 0.43376,-0.398064 1.01028,-0.5971 1.72955,-0.597108 0.75771,8e-6 1.52365,0.263559 2.29784,0.790653 z"
           id="path4862"
           style="font-style:italic;font-family:Gill Sans MT;-inkscape-font-specification:Gill Sans MT Italic" />
        <path
           d="m 292.36526,47.6984 -1.06244,7.57709 -1.43306,0 0.14001,-0.873013 -0.033,-0.04118 c -0.66437,0.708294 -1.34521,1.06244 -2.04251,1.06244 -0.69183,0 -1.2807,-0.292376 -1.76662,-0.87713 -0.48592,-0.584753 -0.72888,-1.291672 -0.72888,-2.120762 0,-1.438544 0.4516,-2.624522 1.35481,-3.557937 0.90321,-0.933403 2.16469,-1.400107 3.78443,-1.400115 0.65887,8e-6 1.25461,0.07688 1.78721,0.230607 z m -2.19077,5.386323 0.62593,-4.373299 c -0.15374,-0.01097 -0.30199,-0.01647 -0.44474,-0.01647 -1.12559,7e-6 -1.98213,0.358271 -2.56962,1.074794 -0.5875,0.716534 -0.88125,1.516795 -0.88125,2.400784 0,0.609464 0.14138,1.10774 0.42415,1.494828 0.28277,0.387092 0.64103,0.580637 1.0748,0.580636 0.3459,1e-6 0.72476,-0.171581 1.13656,-0.514748 0.41179,-0.343163 0.62318,-0.558671 0.63417,-0.646523 z"
           id="path4864"
           style="font-style:italic;font-family:Gill Sans MT;-inkscape-font-specification:Gill Sans MT Italic" />
        <path
           d="m 295.75848,47.6984 -0.18943,1.334227 0.0329,0.03294 c 0.80713,-0.988309 1.64445,-1.482466 2.51197,-1.482474 0.5875,8e-6 1.04322,0.215515 1.36717,0.646523 0.32395,0.431022 0.48592,0.98695 0.48593,1.667783 -10e-6,0.192178 -0.0165,0.392587 -0.0494,0.601226 l -0.72476,4.776861 -1.41659,0 0.69182,-4.826277 c 0.0274,-0.170205 0.0412,-0.326688 0.0412,-0.46945 -1e-5,-0.395321 -0.0824,-0.697306 -0.24708,-0.905956 -0.16472,-0.208638 -0.37062,-0.31296 -0.6177,-0.312967 -0.14276,7e-6 -0.30336,0.0357 -0.4818,0.107068 -0.17845,0.07138 -0.36925,0.181197 -0.5724,0.329438 -0.20316,0.148254 -0.45435,0.37337 -0.75359,0.67535 -0.29924,0.30199 -0.4571,0.494163 -0.47357,0.576517 l -0.69182,4.826277 -1.41659,0 1.06244,-7.57709 z"
           id="path4866"
           style="font-style:italic;font-family:Gill Sans MT;-inkscape-font-specification:Gill Sans MT Italic" />
        <path
           d="m 305.46868,47.6984 -0.15648,1.120092 -1.51542,0 -0.72477,4.142691 c -0.0384,0.208647 -0.0576,0.384347 -0.0576,0.527102 0,0.494159 0.26629,0.741238 0.79889,0.741237 0.39532,10e-7 0.85654,-0.150992 1.38364,-0.452978 l -0.0824,1.400114 c -0.5271,0.225117 -1.05146,0.337675 -1.57307,0.337675 -0.62044,0 -1.11048,-0.157856 -1.47012,-0.473568 -0.35964,-0.315712 -0.53945,-0.731628 -0.53945,-1.247749 0,-0.126283 0.0137,-0.255313 0.0412,-0.387091 l 0.79065,-4.587433 -1.33423,0 0.17296,-1.120092 1.3754,0 0.28826,-1.548361 1.41659,0 -0.26355,1.548361 z"
           id="path4868"
           style="font-style:italic;font-family:Gill Sans MT;-inkscape-font-specification:Gill Sans MT Italic" />
        <path
           d="m 307.00881,45.326442 c 0,-0.230597 0.081,-0.426887 0.24296,-0.588872 0.16197,-0.161963 0.35552,-0.24295 0.58063,-0.242961 0.22512,1.1e-5 0.41866,0.081 0.58064,0.242961 0.16197,0.161985 0.24296,0.358275 0.24296,0.588872 0,0.225126 -0.081,0.418671 -0.24296,0.580636 -0.16198,0.161983 -0.35552,0.24297 -0.58064,0.242961 -0.22511,9e-6 -0.41866,-0.08098 -0.58063,-0.242961 -0.16198,-0.161965 -0.24296,-0.35551 -0.24296,-0.580636 z m 1.27657,2.371958 -1.06244,7.57709 -1.43306,0 1.06244,-7.57709 z"
           id="path4870"
           style="font-style:italic;font-family:Gill Sans MT;-inkscape-font-specification:Gill Sans MT Italic" />
        <path
           d="m 311.68684,47.6984 -0.22237,1.441295 0.0329,0.03294 c 0.45023,-0.642398 0.80712,-1.067923 1.07068,-1.276574 0.26354,-0.208637 0.57651,-0.312959 0.9389,-0.312967 0.22511,8e-6 0.43375,0.03844 0.62593,0.115303 l 0,1.622486 c -0.30199,-0.170204 -0.59574,-0.255309 -0.88125,-0.255315 -0.28003,6e-6 -0.52985,0.07001 -0.74947,0.210017 -0.21963,0.140017 -0.48593,0.439257 -0.79889,0.89772 -0.31297,0.458474 -0.47494,0.737124 -0.48592,0.835951 l -0.59299,4.266231 -1.43306,0 1.06244,-7.57709 z"
           id="path4872"
           style="font-style:italic;font-family:Gill Sans MT;-inkscape-font-specification:Gill Sans MT Italic" />
        <path
           d="m 316.95786,47.6984 -0.22237,1.441295 0.0329,0.03294 c 0.45023,-0.642398 0.80712,-1.067923 1.07068,-1.276574 0.26354,-0.208637 0.57651,-0.312959 0.9389,-0.312967 0.22511,8e-6 0.43375,0.03844 0.62593,0.115303 l 0,1.622486 c -0.30199,-0.170204 -0.59574,-0.255309 -0.88125,-0.255315 -0.28003,6e-6 -0.52985,0.07001 -0.74947,0.210017 -0.21963,0.140017 -0.48593,0.439257 -0.79889,0.89772 -0.31297,0.458474 -0.47494,0.737124 -0.48592,0.835951 l -0.59299,4.266231 -1.43306,0 1.06244,-7.57709 z"
           id="path4874"
           style="font-style:italic;font-family:Gill Sans MT;-inkscape-font-specification:Gill Sans MT Italic" />
        <path
           d="m 322.51714,43.769844 -0.72477,5.147479 0.0329,0.03294 c 0.85105,-0.988308 1.72681,-1.482466 2.62728,-1.482474 0.55455,8e-6 0.98693,0.188062 1.29716,0.564164 0.31022,0.376116 0.46533,0.882627 0.46533,1.519536 0,0.181197 -0.0137,0.367878 -0.0412,0.560046 l -0.72476,5.163951 -1.43306,0 0.72477,-5.246311 c 0.0165,-0.13177 0.0247,-0.25531 0.0247,-0.370619 0,-0.74123 -0.29375,-1.111848 -0.88124,-1.111855 -0.42828,7e-6 -0.9142,0.275911 -1.45777,0.827715 -0.54358,0.551815 -0.8236,0.877135 -0.84007,0.975962 l -0.69182,4.925108 -1.43306,0 1.62249,-11.505646 z"
           id="path4876"
           style="font-style:italic;font-family:Gill Sans MT;-inkscape-font-specification:Gill Sans MT Italic" />
        <path
           d="m 331.24726,47.467793 c 0.85104,8e-6 1.53325,0.300621 2.04663,0.901839 0.51337,0.601232 0.77006,1.401492 0.77007,2.400784 -1e-5,1.383646 -0.34592,2.520208 -1.03773,3.40969 -0.69183,0.889485 -1.54288,1.334227 -2.55315,1.334227 -0.88949,0 -1.5868,-0.29924 -2.09194,-0.897721 -0.50514,-0.598479 -0.75771,-1.43031 -0.75771,-2.495497 0,-1.323241 0.34866,-2.429605 1.04597,-3.319095 0.69731,-0.889477 1.55659,-1.334219 2.57786,-1.334227 z m 0,1.128328 c -0.58751,6e-6 -1.09402,0.363761 -1.51954,1.091265 -0.42553,0.727516 -0.63829,1.588173 -0.63829,2.581976 0,0.592992 0.12766,1.076168 0.38298,1.44953 0.25531,0.373365 0.57239,0.560047 0.95125,0.560046 0.59848,1e-6 1.11048,-0.340419 1.53601,-1.02126 0.42552,-0.680837 0.63828,-1.537377 0.63828,-2.569622 0,-0.636909 -0.12354,-1.144793 -0.37061,-1.523654 -0.24709,-0.378848 -0.57378,-0.568275 -0.98008,-0.568281 z"
           id="path4878"
           style="font-style:italic;font-family:Gill Sans MT;-inkscape-font-specification:Gill Sans MT Italic" />
        <path
           d="m 338.11606,45.77942 -0.27179,1.91898 c 0.38434,-0.15373 0.81261,-0.230599 1.28481,-0.230607 0.88948,8e-6 1.63484,0.334937 2.23607,1.004788 0.60122,0.669865 0.90183,1.509933 0.90184,2.520206 -1e-5,1.202454 -0.40769,2.256657 -1.22305,3.162611 -0.81536,0.905957 -1.93133,1.358935 -3.34792,1.358935 l -0.94713,0 -0.5024,3.640297 -1.43305,0 1.34246,-9.578429 c -0.30748,0.219631 -0.58613,0.505144 -0.83595,0.85654 -0.24983,0.351406 -0.39121,0.527107 -0.42415,0.527102 -0.0439,5e-6 -0.0659,-0.03569 -0.0659,-0.107067 0,-0.252565 0.14413,-0.61632 0.43239,-1.091266 0.28825,-0.474935 0.63279,-0.874379 1.03361,-1.198333 l 0.3871,-2.783757 z m -0.42004,2.98142 -0.77418,5.53457 0.69182,0 c 0.97184,1e-6 1.74602,-0.328065 2.32255,-0.984198 0.57651,-0.65613 0.86477,-1.428937 0.86477,-2.318425 0,-0.768685 -0.20316,-1.368537 -0.60946,-1.799559 -0.40631,-0.431009 -0.92243,-0.646516 -1.54836,-0.646523 -0.33493,7e-6 -0.65064,0.07138 -0.94714,0.214135 z"
           id="path4880"
           style="font-style:italic;font-family:Gill Sans MT;-inkscape-font-specification:Gill Sans MT Italic" />
        <path
           d="m 350.25587,47.6984 -1.07891,7.57709 -1.41659,0 0.13178,-1.284811 c -0.87302,0.93341 -1.70485,1.400114 -2.4955,1.400114 -0.51063,0 -0.94302,-0.182564 -1.29717,-0.547691 -0.35414,-0.365128 -0.53122,-0.885366 -0.53122,-1.560716 0,-0.192171 0.0137,-0.387088 0.0412,-0.584754 l 0.7083,-4.999232 1.43305,0 -0.70829,4.999232 c -0.022,0.164722 -0.0329,0.31846 -0.0329,0.461214 0,0.757711 0.28002,1.136565 0.84007,1.136564 0.58749,1e-6 1.34794,-0.557299 2.28136,-1.671901 l 0.69182,-4.925109 z"
           id="path4882"
           style="font-style:italic;font-family:Gill Sans MT;-inkscape-font-specification:Gill Sans MT Italic" />
        <path
           d="m 356.2187,48.258446 0,1.498946 c -0.87301,-0.664362 -1.63347,-0.996545 -2.28136,-0.996552 -0.29101,7e-6 -0.53534,0.07825 -0.733,0.234725 -0.19766,0.15649 -0.2965,0.344544 -0.29649,0.564164 -10e-6,0.142762 0.0618,0.295127 0.18531,0.457096 0.12353,0.161979 0.51337,0.462592 1.1695,0.901838 0.65613,0.439256 1.09813,0.842818 1.32599,1.210687 0.22786,0.367876 0.34179,0.74124 0.3418,1.120092 -1e-5,0.664369 -0.22101,1.207943 -0.663,1.630721 -0.442,0.42278 -1.00342,0.63417 -1.68425,0.63417 -0.84008,0 -1.71583,-0.332184 -2.62728,-0.996552 l 0.24708,-1.383643 c 0.94439,0.75222 1.72132,1.128329 2.33078,1.128328 0.28551,10e-7 0.52023,-0.07961 0.70417,-0.238843 0.18394,-0.159227 0.27591,-0.359636 0.27591,-0.601226 0,-0.181189 -0.0673,-0.366498 -0.20178,-0.555927 -0.13453,-0.189425 -0.52573,-0.509255 -1.17363,-0.959491 -0.64789,-0.450229 -1.07616,-0.851045 -1.28481,-1.202451 -0.20864,-0.351396 -0.31297,-0.705542 -0.31296,-1.062439 -1e-5,-0.653381 0.21688,-1.17911 0.65064,-1.577188 0.43376,-0.398064 1.01027,-0.5971 1.72955,-0.597108 0.75771,8e-6 1.52365,0.263559 2.29783,0.790653 z"
           id="path4884"
           style="font-style:italic;font-family:Gill Sans MT;-inkscape-font-specification:Gill Sans MT Italic" />
      </g>
    </g>
    <path
       d="m -25.75889,291 0,-291.000000090000014"
       id="path4495-1"
       style="color:#000000;fill:none;stroke:#b4b4b4;stroke-width:1;stroke-linecap:butt;stroke-linejoin:miter;stroke-miterlimit:4;stroke-opacity:1;stroke-dasharray:none;stroke-dashoffset:0;marker:none;visibility:visible;display:inline;overflow:visible;enable-background:accumulate" />
    <path
       d="m 57.691705,3.1382892 c -2.272844,0.1262691 -4.292195,2.772366 -6.3125,3.65625 -2.020305,0.883883 -4.427347,-0.482709 -5.4375,0.90625 -1.010152,1.38896 -1.894829,3.3973668 -3.03125,4.2812508 -1.136422,0.883883 -3.28125,2.760945 -3.28125,4.78125 0,2.020305 -1.782519,3.542195 -1.65625,5.5625 0.126269,2.020305 2.522366,3.806947 3.40625,7.46875 0.883883,3.661803 0.141021,4.667195 1.65625,6.6875 1.515229,2.020305 3.537596,3.645621 2.90625,7.8125 -0.631345,4.166879 -1.53458,4.421003 -4.3125,6.0625 -2.777919,1.641498 -13.358025,3.935755 -18.15625,7.21875 -4.798224,3.282996 -5.575983,6.671002 -7.34375,8.3125 -1.767767,1.641498 -4.543464,4.162595 -6.4375008,3.53125 -1.894036,-0.631346 -2.520305,-14.624046 -0.5,-20.9375 2.0203068,-6.313453 1.9809648,-4.537119 3.8750008,-7.0625 1.894036,-2.525382 1.514752,-2.634676 3.15625,-4.78125 1.641498,-2.146574 4.65625,-3.452252 4.65625,-5.09375 0,-1.641498 -1.995551,-1.593381 -3.8125,-1.34375 -2.872546,0.394659 -5.40578,3.565859 -5.84375,3.125 -0.916225,-0.92227 -0.248731,-8.711927 -0.375,-12.5 -0.126269,-3.788072 -0.648636,-4.433693 -1.4062508,-4.8125 -0.757615,-0.378807 -2.15625,0.90625 -2.15625,0.90625 0.0343,-3.314065 -3.75546,-4.51328 -4.28125,0.5 -3.27739103,-3.073687 -4.324687,-0.295829 -4.9375,3.625 0,0 -4.772728,-4.452094 -3.743655,5.091212 0.415857,3.856521 0.934306,8.010217 1.390082,11.023645 0.642609,4.248699 0.275218,7.233183 0.353573,9.322643 0.133929,3.571429 -3.783788,20.049648 -3.53125,30.65625 0.252539,10.606602 1.766022,14.146098 3.28125,15.15625 1.515229,1.010153 7.28458,1.753807 10.0625,1.375 2.777919,-0.378807 12.5396568,-3.643559 14.8125008,-4.90625 2.272843,-1.26269 4.78125,-4.4375 4.78125,-4.4375 0,0 3.65625,16.79425 3.65625,21.71875 0,4.92449 -3.276174,10.62659 -3.78125,16.6875 -0.505076,6.06092 -0.243655,6.93575 -0.875,10.21875 -0.631345,3.283 -2.026173,5.66798 -2.53125,10.71875 -0.505076,5.05076 0.897367,30.17767 1.78125,37.375 0.883884,7.19734 4.53125,18.05821 4.53125,21.59375 0,3.53553 -0.377539,7.45891 -0.125,14.65625 0.252538,7.19733 7.195115,35.61564 6.4375,39.65625 -0.757614,4.04061 -9.202252,10.99111 -10.84375,11.875 -1.641498,0.88388 -5.958598,1.99572 -6.96875,5.53125 -1.010153,3.53554 0.719543,7.58867 3.75,8.09375 3.030458,0.50507 7.524616,-0.87066 9.46875,-1.59375 4.20855,-1.5653 3.979352,-5.4397 8.375,-8.25 4.608957,-2.94668 7.891021,-1.76221 9.40625,-3.65625 1.515228,-1.89403 -1.1875,-18.07455 -1.1875,-29.3125 0,-11.23795 3.654981,-18.04124 3.78125,-26.375 0.126269,-8.33375 -2.40625,-11.12833 -2.40625,-13.90625 0,-2.77792 1.401174,-4.78839 1.90625,-7.1875 0.505077,-2.39911 0.122462,-17.94797 0.375,-23.125 0.252538,-5.17703 1.65625,-8.3125 1.65625,-8.3125 0,0 3.243386,7.72404 3.15625,11.875 -0.11723,5.58452 0.914329,22.6147 3.28125,33.0625 0.784974,3.46494 -0.75,6.43908 -0.75,12.5 0,6.06091 0.83852,10.80771 1.75,15.53125 1.286546,6.66724 3.588822,12.18639 3.65625,18.9375 0.04413,4.41884 -3.160057,16.6921 -2.78125,19.34375 0.378807,2.65165 3.676078,1.87326 4.8125,5.15625 1.136421,3.283 -1.263167,5.31457 3.15625,8.21875 4.419418,2.90419 5.940831,3.78887 8.71875,3.03125 2.77792,-0.75761 4.907519,-3.66212 4.78125,-6.1875 -0.126269,-2.52538 -7.806155,-13.88801 -8.4375,-18.8125 -0.631345,-4.9245 6.433693,-23.49381 6.8125,-39.65625 0.378807,-16.16244 -3.40625,-17.68829 -3.40625,-20.71875 0,-3.03046 0.368654,-10.97335 1,-13.625 0.631345,-2.65165 2.641021,-11.49317 4.15625,-15.28125 1.515229,-3.78807 5.577253,-6.70051 7.218753,-11.625 1.6415,-4.92449 0.49365,-6.41798 1.125,-11.46875 0.63134,-5.05076 7.0587,-25.0138 7.4375,-32.96875 0.37881,-7.95495 -1.99619,-10.22541 -2.375,-15.78125 -0.37881,-5.55583 0.006,-15.793464 -0.625,-17.6875 -0.63134,-1.894036 -1.28125,-3.787119 -1.28125,-6.3125 0,-2.525382 0.87548,-10.733025 -2.28125,-15.53125 -3.15672,-4.798224 -8.844545,-5.17481 -11.875003,-6.4375 -3.030457,-1.262691 -11.363579,-8.215735 -12.5,-11.625 -1.136422,-3.409264 0.639752,-8.948444 2.28125,-10.96875 1.641498,-2.020305 2.273636,-1.393559 3.03125,-2.65625 0.757615,-1.262691 -0.381346,-3.139752 0.25,-4.78125 0.631345,-1.641497 1.904981,-2.042195 2.03125,-4.0625 0.126269,-2.020305 -1.519828,-5.293464 -2.65625,-7.1875 -1.136421,-1.894036 -1.141021,-4.42354 -2.65625,-5.8125006 -1.515229,-1.3889602 -2.76856,-0.1110402 -4.03125,-1.5000002 -1.262691,-1.388959 -4.914657,-4.688769 -7.1875,-4.5625 z M 78.597955,103.16954 c 2.31776,-0.0534 2.8662,3.90147 2.9375,6.21875 0,0 -4.3e-4,9.78732 0.09375,14.625 0.103509,5.31692 0.359499,19.9983 -1.25,20.0625 -1.115094,0.0444 -2.074111,-16.98757 -2.3125,-25.53125 -0.07662,-2.74589 -1.26349,-6.55895 -1.3125,-9.875 -0.04238,-2.86728 0.96354,-5.4797 1.84375,-5.5 z"
       id="path3614"
       style="color:#000000;fill:#41b5e1;fill-opacity:1;fill-rule:nonzero;stroke:none;stroke-width:1.5;marker:none;visibility:visible;display:inline;overflow:visible;enable-background:accumulate" />
    <path
       d="m 167.68109,150.19849 c 0.47452,-8.37159 15.27413,-10.03819 18.20384,-10.84638 2.9297,-0.8082 16.9721,-8.89015 33.64113,-9.39527 16.66902,-0.50513 22.42742,0.40409 25.86225,2.82868 3.43483,2.42459 4.64712,5.25327 12.52702,9.19322 7.87991,3.93995 15.15367,7.07171 22.7305,7.47581 7.57683,0.4041 36.87391,-2.02049 52.93679,-1.81844 16.06288,0.20205 24.95303,3.63688 29.90323,4.64712 4.9502,1.01025 8.08195,-0.10102 13.2342,0.8082 5.15224,0.90922 9.29424,3.23278 13.63829,3.7379 4.34405,0.50512 47.88558,0.60615 54.25012,-0.50512 6.36453,-1.11127 11.6178,-2.52561 15.86083,-2.62664 4.24302,-0.10102 15.75981,-1.51536 22.83152,-3.3338 7.07171,-1.81844 21.1141,-2.52561 29.8022,-3.63688 8.6881,-1.11127 26.56942,-2.92971 39.80362,-2.82868 13.2342,0.10102 26.36737,0.60614 28.58991,1.41434 2.22254,0.80819 3.3338,2.12151 6.76863,2.22254 3.43483,0.10102 11.61781,-0.4041 17.7803,1.51536 6.16249,1.91947 16.26493,0.90922 20.20489,1.81844 3.93995,0.90922 22.52844,3.93995 28.5899,6.06147 6.06147,2.12151 7.37479,3.93995 9.39528,4.44507 2.02048,0.50512 9.29424,1.91946 13.03215,3.33381 3.7379,1.41434 14.04239,2.52561 16.9721,3.23278 2.92971,0.70717 8.284,2.62663 14.24444,2.32356 5.96044,-0.30307 9.29425,-1.11127 9.59732,-0.20205 0.30307,0.90922 -3.93995,2.12151 -4.5461,3.43483 -0.60615,1.31332 -0.50512,2.62663 -1.31332,3.23278 -0.80819,0.60615 -2.22253,-0.20205 -3.7379,0.50512 -1.51537,0.70717 -5.35429,0.10103 -6.06147,1.01025 -0.70717,0.90922 -3.7379,1.21229 -6.76863,0.4041 -3.03073,-0.8082 -5.15225,-2.12152 -6.06147,-2.12152 -0.90922,0 -1.91946,1.51537 -4.04097,1.2123 -2.12152,-0.30308 -12.22396,-5.45532 -14.14342,-5.55635 -1.91946,-0.10102 -3.7379,1.31332 -6.66761,0.20205 -2.92971,-1.11127 -11.11269,-5.65737 -12.62805,-5.55634 -1.51537,0.10102 -1.01025,2.52561 -2.32357,2.72766 -1.31331,0.20205 -13.53727,-8.284 -15.55776,-8.18298 -2.02048,0.10102 -1.21229,2.52561 -3.13175,2.22254 -1.91947,-0.30308 -11.51679,-9.29425 -33.33806,-10.10244 -21.82127,-0.8082 -38.99651,-1.22249 -54.99796,-0.0795 -16.00145,1.14296 -56.71943,13.8584 -73.5781,17.7159 -16.85868,3.85749 -17.00155,2.14305 -29.85985,4.57184 -12.85831,2.42879 -18.85886,5.14332 -23.00209,5.7148 -4.14323,0.57148 -6.00054,2.28592 -10.14378,3.28602 -4.14323,1.00009 -6.42915,-0.28574 -9.71516,2.71453 -3.28602,3.00027 -8.28647,9.71516 -11.71535,18.28737 -3.42889,8.57221 -5.57194,14.71562 -9.85804,16.85867 -4.2861,2.14305 -25.43088,-3.57175 -25.43088,-3.57175 0,0 2.00018,2.8574 2.42879,6.57202 0.42861,3.71463 -1.4287,12.57257 -1.00009,16.2872 0.42861,3.71462 8.00073,19.5732 7.85786,22.57347 -0.14287,3.00027 -6.28629,5.28619 -7.71499,7.85786 -1.4287,2.57166 0.85722,5.57193 -3.57175,7.57211 -4.42897,2.00018 -8.00072,-1.00009 -13.00118,-1.00009 -5.00045,0 -5.42906,1.00009 -8.85794,1.4287 -3.42889,0.42861 -4.71472,-1.00009 -6.14342,-0.14287 -1.4287,0.85722 -2.8574,-1.28583 2.14305,-3.28601 5.00046,-2.00018 12.57257,-0.85722 13.42979,-3.14314 0.85722,-2.28592 -0.57148,-3.42889 -0.57148,-5.00046 0,-1.57157 2.00018,-3.85749 -0.85722,-5.42906 -2.8574,-1.57157 -7.28637,0.85722 -8.14359,0.28574 -0.85722,-0.57148 3.00027,-4.00036 7.1435,-3.71462 4.14323,0.28574 5.57194,1.28583 7.00064,3.71462 1.4287,2.42879 0.85722,6.28628 3.71462,6.00054 2.8574,-0.28574 6.85776,-3.28601 6.14341,-7.71498 -0.71435,-4.42897 -3.57175,-12.71544 -8.00072,-19.71607 -4.42898,-7.00064 -7.14351,-7.00064 -9.85804,-11.42961 -2.71453,-4.42898 -2.14305,-6.28629 -5.42906,-10.85813 -3.28602,-4.57184 -5.85768,-6.71489 -7.28638,-6.42915 -1.4287,0.28574 -3.00027,13.71552 -5.7148,18.71598 -2.71453,5.00045 -6.28629,9.42942 -10.42952,9.5723 -4.14323,0.14287 -13.00118,-9.00082 -13.8584,-8.42934 -0.85722,0.57148 -0.28574,4.85758 0.71435,8.14359 1.00009,3.28602 2.14305,5.42907 1.71444,6.28629 -0.42861,0.85722 -2.00018,0.42861 -3.42888,1.57157 -1.4287,1.14296 -1.93314,3.34383 -3.00027,2.57166 -1.41864,-1.02653 1.73895,-3.40437 1.59608,-5.26168 -0.14287,-1.85731 -2.4533,-2.59617 -2.4533,-4.59635 0,-2.00019 0.71435,-10.71526 -2.14305,-12.4297 -2.85741,-1.71444 -3.28602,0.14287 -2.71454,3.00027 0.57148,2.8574 2.00019,5.14332 1.71445,7.1435 -0.28575,2.00019 -2.28593,2.57167 -2.28593,5.14333 0,2.57166 2.44898,4.84811 0.85722,4.71471 -1.66923,-0.13989 -3.14314,-2.71453 -3.00027,-8.42934 0.14287,-5.7148 -0.17754,-11.81636 -0.74902,-16.10247 -0.57148,-4.2861 -2.25125,-10.04275 -1.39403,-12.32868 0.85722,-2.28592 11.83371,-4.46364 11.83371,-7.0353 0,-2.57166 -5.26168,-7.25171 -9.26205,-10.25198 -4.00036,-3.00027 -5.00045,-11.42961 -8.5722,-13.14405 -3.57176,-1.71444 -14.00127,-5.28619 -21.00191,-9.14368 -7.00063,-3.8575 -12.4297,-12.14396 -20.57329,-13.71553 -8.1436,-1.57157 -21.85913,-2.00018 -34.14596,-1.85731 -12.28682,0.14287 -16.99231,0.32394 -20.28755,-0.71435 -2.72364,-0.85819 -4.77079,-3.99044 -4.62025,-6.64643 z"
       transform="translate(-45.193961,-0.50000009)"
       id="path4799"
       style="color:#000000;fill:#59c167;fill-opacity:1;fill-rule:nonzero;stroke:none;stroke-width:1.5;marker:none;visibility:visible;display:inline;overflow:visible;enable-background:accumulate" />
    <path
       d="m 570.23112,291 0,-291.000000090000014"
       id="path4497-8-7"
       style="color:#000000;fill:none;stroke:#b4b4b4;stroke-width:1;stroke-linecap:butt;stroke-linejoin:miter;stroke-miterlimit:4;stroke-opacity:1;stroke-dasharray:none;stroke-dashoffset:0;marker:none;visibility:visible;display:inline;overflow:visible;enable-background:accumulate" />
    <path
       d="m 125.25891,99.270228 443.21986,0"
       id="path3665"
       style="color:#000000;fill:none;stroke:#000000;stroke-width:1.5;stroke-opacity:1;marker:none;marker-start:url(#Arrow2Lstart);marker-end:url(#Arrow2Lend);visibility:visible;display:inline;overflow:visible;enable-background:accumulate" />
  </g>
</svg>
