<?xml version="1.0" encoding="UTF-8" standalone="no"?>
<!-- Created with Inkscape (http://www.inkscape.org/) -->

<svg
   xmlns:svg="http://www.w3.org/2000/svg"
   xmlns="http://www.w3.org/2000/svg"
   version="1.1"
   width="282"
   height="101"
   id="svg2873">
  <defs
     id="defs2877" />
  <path
     d="m 170.65722,96.292806 c -1.34634,-0.347173 -1.67695,-1.056782 -1.2272,-2.633999 2.38936,-8.379263 3.80053,-15.615632 3.29972,-16.920714 -0.32672,-0.851416 -2.43823,-1.850945 -4.72702,-2.237633 -2.27509,-0.384374 -6.65339,-1.583469 -9.72956,-2.664655 -6.25094,-2.197029 -18.93403,-2.574327 -25.77316,-0.766704 -2.2,0.581473 -6.75705,1.685258 -10.12678,2.452854 -3.36972,0.767597 -7.86972,2.04065 -10,2.829008 C 83.082483,87.190692 55.011766,88.402836 33.102961,79.773994 23.845537,76.127933 17.501542,72.207577 14.189477,68.086154 9.2254474,61.909083 10.596524,56.159245 16.322442,59.141208 19.162754,60.620395 30.089807,72.407317 28.992685,72.808495 28.528674,72.978168 26.202997,70.991045 23.824514,68.392667 15.400365,59.189689 13,57.857171 13,62.383638 c 0,3.124966 6.670515,9.147203 13.374962,12.075109 10.926947,4.771917 21.36369,6.869982 34.125038,6.860047 11.326279,-0.0088 12.673721,-0.234221 24,-4.014753 C 95.722421,73.558175 100.48627,71.65927 110.56572,66.914063 112.80187,65.861328 115.1823,65 115.85556,65 c 0.67326,0 2.89369,-0.842289 4.93428,-1.871753 4.06392,-2.050225 25.9484,-9.262414 41.71016,-13.745887 8.49463,-2.41632 11.63687,-2.821397 20.87357,-2.69088 13.52204,0.19107 22.25263,2.214291 34.88606,8.08447 9.33666,4.338319 9.93593,4.482035 13.82755,3.316077 4.49734,-1.347436 11.59713,-8.05414 15.44728,-14.592027 1.29557,-2.2 4.24923,-8.725 6.56368,-14.5 4.80237,-11.982818 7.78251,-16.917739 12.26159,-20.3043721 2.81047,-2.1250005 3.45534,-2.2430881 6.14027,-1.1243947 l 3,1.2499694 -3,0.7206375 C 266.29089,11.033347 262.46971,17.008585 256.53922,34.5 c -3.98022,11.7393 -8.3892,18.976854 -17.47831,28.691504 -6.56415,7.015925 -9.05422,8.977688 -13.10185,10.322094 -6.94027,2.305189 -8.70577,5.705297 -6.89083,13.270812 0.73334,3.05689 2.09578,5.925578 3.11724,6.56349 2.87168,1.793394 2.12613,2.799403 -1.82493,2.462465 C 216.86732,95.51247 216.60732,95.218741 213.8897,88.5 l -2.83139,-7 -0.0292,4.921259 c -0.019,3.209649 0.54644,5.557294 1.62583,6.75 1.55985,1.723616 1.51674,1.827861 -0.75,1.813428 -4.32964,-0.02757 -4.9855,-1.215819 -5.20108,-9.422967 L 206.5,77.798438 202,78.60208 c -2.475,0.442004 -7.42101,0.824855 -10.99113,0.850781 l -6.49113,0.04714 -1.16287,5 c -1.73101,7.4428 -1.62841,8.21453 1.18603,8.920909 3.75906,0.943464 1.87742,2.88015 -2.07744,2.138214 -1.88595,-0.353806 -3.58128,-0.177506 -3.9445,0.410193 -0.64327,1.04084 -4.46935,1.198273 -7.86174,0.32349 z M 177.98469,89.75 c 0.0208,-2.38357 -1.70194,-2.216242 -2.48185,0.241051 -0.81904,2.58057 0.40467,4.762988 1.60685,2.865712 0.47283,-0.74622 0.86658,-2.144263 0.875,-3.106763 z"
     id="path2895"
     style="fill:#000000" />
</svg>
