<?xml version="1.0" encoding="UTF-8" standalone="no"?>
<!-- Created with Inkscape (http://www.inkscape.org/) -->

<svg
   xmlns:dc="http://purl.org/dc/elements/1.1/"
   xmlns:cc="http://creativecommons.org/ns#"
   xmlns:rdf="http://www.w3.org/1999/02/22-rdf-syntax-ns#"
   xmlns:svg="http://www.w3.org/2000/svg"
   xmlns="http://www.w3.org/2000/svg"
   xmlns:sodipodi="http://sodipodi.sourceforge.net/DTD/sodipodi-0.dtd"
   xmlns:inkscape="http://www.inkscape.org/namespaces/inkscape"
   width="2448.2815mm"
   height="723.07318mm"
   viewBox="0 0 2448.2815 723.07318"
   version="1.1"
   id="svg8424"
   inkscape:version="0.92.3 (2405546, 2018-03-11)"
   sodipodi:docname="Edmontosaurus regalis Silhouette.svg">
  <defs
     id="defs8418" />
  <sodipodi:namedview
     id="base"
     pagecolor="#ffffff"
     bordercolor="#666666"
     borderopacity="1.0"
     inkscape:pageopacity="0.0"
     inkscape:pageshadow="2"
     inkscape:zoom="0.0875"
     inkscape:cx="4365.7143"
     inkscape:cy="2435.009"
     inkscape:document-units="mm"
     inkscape:current-layer="layer1"
     showgrid="false"
     inkscape:window-width="1366"
     inkscape:window-height="709"
     inkscape:window-x="0"
     inkscape:window-y="0"
     inkscape:window-maximized="1"
     fit-margin-top="0"
     fit-margin-left="0"
     fit-margin-right="0"
     fit-margin-bottom="0" />
  <metadata
     id="metadata8421">
    <rdf:RDF>
      <cc:Work
         rdf:about="">
        <dc:format>image/svg+xml</dc:format>
        <dc:type
           rdf:resource="http://purl.org/dc/dcmitype/StillImage" />
        <dc:title></dc:title>
      </cc:Work>
    </rdf:RDF>
  </metadata>
  <g
     inkscape:label="Layer 1"
     inkscape:groupmode="layer"
     id="layer1"
     transform="translate(2030.7426,111.40565)">
    <g
       id="g9143"
       style="fill:#000000"
       transform="matrix(-1,0,0,1,-1523.2446,0)">
      <path
         style="color:#000000;clip-rule:nonzero;display:inline;overflow:visible;visibility:visible;opacity:1;isolation:auto;mix-blend-mode:normal;color-interpolation:sRGB;color-interpolation-filters:linearRGB;solid-color:#000000;solid-opacity:1;fill:#000000;fill-opacity:1;fill-rule:evenodd;stroke:none;stroke-width:0.26458332;stroke-linecap:butt;stroke-linejoin:miter;stroke-miterlimit:4;stroke-dasharray:none;stroke-dashoffset:0;stroke-opacity:1;color-rendering:auto;image-rendering:auto;shape-rendering:auto;text-rendering:auto;enable-background:accumulate"
         d="m -1846.4506,184.73898 c 0,0 19.1186,-6.78219 28.1247,-9.24599 14.2305,-3.89303 29.3393,-3.57331 47.5711,-0.99391 22.9607,3.24839 42.9818,7.87569 65.4134,13.75529 39.4713,10.3459 65.38,14.5923 101.2897,19.514 27.8768,3.82079 56.139,4.18491 84.2652,4.98081 15.6492,0.4428 31.3191,-0.6241 46.9664,-0.1156 9.4032,0.30559 13.9367,-1.15692 22.722,2.20948 8.4245,3.22802 22.0649,15.67381 22.0649,15.67381 l -4.8292,-62.39171 -258.6712,-50.85969 -79.3589,2.2009 z"
         id="path9036"
         inkscape:connector-curvature="0"
         sodipodi:nodetypes="csssssssccccc" />
      <path
         sodipodi:nodetypes="ccscccsc"
         inkscape:connector-curvature="0"
         id="path9038"
         d="m -1647.7031,-35.818332 c 0,0 11.4538,-24.176701 8.4863,-31.993199 -2.9675,-7.816401 -7.6986,-11.249102 -11.8844,-13.839701 -4.1859,-2.5907 -8.4755,-1.841299 -17.3793,-1.276601 -8.9038,0.5647 -13.5589,-3.376999 -18.1769,-4.300799 -4.618,-0.9239 -14.4146,0.7092 -26.9017,10.6072 -12.4871,9.897899 -10.7378,22.940201 -14.2143,34.764301 -3.4766,11.823998 -5.9105,16.460898 -5.9105,16.460898 l 24.9787,7.043402"
         style="color:#000000;clip-rule:nonzero;display:inline;overflow:visible;visibility:visible;opacity:1;isolation:auto;mix-blend-mode:normal;color-interpolation:sRGB;color-interpolation-filters:linearRGB;solid-color:#000000;solid-opacity:1;fill:#000000;fill-opacity:1;fill-rule:evenodd;stroke:none;stroke-width:0.89341497;stroke-linecap:butt;stroke-linejoin:miter;stroke-miterlimit:4;stroke-dasharray:none;stroke-dashoffset:0;stroke-opacity:1;color-rendering:auto;image-rendering:auto;shape-rendering:auto;text-rendering:auto;enable-background:accumulate" />
      <path
         style="color:#000000;clip-rule:nonzero;display:inline;overflow:visible;visibility:visible;opacity:1;isolation:auto;mix-blend-mode:normal;color-interpolation:sRGB;color-interpolation-filters:linearRGB;solid-color:#000000;solid-opacity:1;fill:#000000;fill-opacity:1;fill-rule:evenodd;stroke:none;stroke-width:2;stroke-linecap:butt;stroke-linejoin:miter;stroke-miterlimit:4;stroke-dasharray:none;stroke-dashoffset:0;stroke-opacity:1;color-rendering:auto;image-rendering:auto;shape-rendering:auto;text-rendering:auto;enable-background:accumulate"
         d="m -1429.6207,235.12816 c 0,0 3.5391,8.16571 6.8216,12.74482 9.108,12.70598 27.8802,38.53958 39.8242,52.5267 11.7313,13.73799 37.6674,38.9663 37.6674,38.9663 0,0 -1.3016,17.49399 -1.3826,26.25849 -0.1094,11.8476 0.3259,23.7086 1.213,35.52341 0.8844,11.777 3.5226,23.39689 4.0923,35.19329 0.6105,12.6411 -0.3325,25.31081 -0.7304,37.96041 -0.2132,6.77679 -0.6633,13.5447 -0.8877,20.32111 -0.13,3.92448 -0.8089,7.85598 -1.0217,11.77689 -0.2021,3.72459 -0.3955,7.42379 -0.2038,11.14899 0.6141,11.93681 1.2015,15.53242 1.153,23.3127 -0.056,9.03171 -1.0964,18.03061 -1.6762,27.04391 -0.1216,1.8901 -0.4048,3.77571 -0.378,5.6696 0.038,2.6576 0.3115,5.2805 0.378,7.9375 0.072,2.8784 -0.2795,5.7549 -1.1339,8.5045 -0.436,1.403 -1.3265,3.3438 -2.2847,4.54959 -0.5312,0.66842 -0.5501,1.68701 -0.5501,1.68701 0,0 -1.9164,3.16399 -2.4569,4.91371 -0.8256,2.6729 -1.1339,8.31538 -1.1339,8.31538 h 8.3155 c 0,0 2.6608,0.6541 4.0065,0.9072 2.1662,0.4074 4.341,0.81851 6.539,0.98271 5.3524,0.4 9.6554,0.38709 16.1018,0 2.2286,-0.1338 6.0476,-1.7009 6.0476,-1.7009 0,0 3.4187,0.036 4.9137,-0.18901 1.1901,-0.1791 2.3219,-1.44979 2.4568,-2.64578 0.5087,-4.5071 0.1307,-9.07331 0,-13.6071 -0.094,-3.27991 -0.3122,-6.55611 -0.5669,-9.82742 -0.1801,-2.31299 -0.3466,-4.63079 -0.6795,-6.92679 -0.2301,-1.58689 -0.6045,-3.1496 -0.9097,-4.72379 -1.2588,-6.49291 -3.8009,-19.47403 -3.8009,-19.47403 0,0 2.1536,5.23733 3.252,7.84691 0.9897,2.35141 1.8338,4.77279 3.0078,7.03781 1.3145,2.5359 2.6209,5.14059 4.4977,7.29401 0.6675,0.76568 1.8675,1.52069 2.8804,1.59858 1.6877,0.1297 3.5654,-1.0002 4.1477,-2.5896 0.4355,-1.18899 0.3334,-2.45259 -0.045,-3.66099 -1.5431,-4.929 -3.2302,-9.6275 -4.8311,-14.53801 -2.197,-6.73849 -5.8166,-20.45168 -5.8166,-20.45168 0,0 -0.959,-16.62811 -1.0033,-26.47011 -0.1183,-26.2785 1.3227,-52.5535 2.9787,-78.78 0.9252,-14.65102 2.1047,-29.29689 3.885,-43.86871 1.2593,-10.30759 3.8552,-20.4392 4.8035,-30.77999 0.4396,-4.79412 0.7152,-9.63271 0.4056,-14.43691 -0.2358,-3.6594 -0.6225,-7.3664 -1.7178,-10.86599 -5.6182,-17.95121 -16.3302,-33.89061 -24.5366,-50.8159 -13.9358,-28.74211 -41.9475,-86.1582 -41.9475,-86.1582"
         id="path9040"
         inkscape:connector-curvature="0"
         inkscape:transform-center-x="16.885911"
         inkscape:transform-center-y="81.348539"
         sodipodi:nodetypes="csscssssssssssssscsccssscsssssscssssssscsssssssc" />
      <path
         style="color:#000000;clip-rule:nonzero;display:inline;overflow:visible;visibility:visible;opacity:1;isolation:auto;mix-blend-mode:normal;color-interpolation:sRGB;color-interpolation-filters:linearRGB;solid-color:#000000;solid-opacity:1;fill:#000000;fill-opacity:1;fill-rule:evenodd;stroke:none;stroke-width:3;stroke-linecap:butt;stroke-linejoin:miter;stroke-miterlimit:4;stroke-dasharray:none;stroke-dashoffset:0;stroke-opacity:1;color-rendering:auto;image-rendering:auto;shape-rendering:auto;text-rendering:auto;enable-background:accumulate"
         d="m -962.43881,-53.530331 c 0,0 -35.21599,183.576101 -39.28009,276.618601 -0.6562,15.02281 0.573,30.1234 2.42371,45.04621 1.50688,12.15039 3.33269,24.3816 7.0458,36.04851 3.7941,11.92138 9.77469,23.05319 15.41468,34.22038 9.5881,18.9846 21.22122,36.13801 29.7544,55.61949 5.24651,11.9779 9.74217,24.45462 12.10027,37.31671 2.3215,12.66229 2.4192,25.71091 1.8953,38.5736 -0.2259,5.54479 -1.0212,11.0767 -2.1667,16.50661 -0.7555,3.58109 -1.0487,6.91439 -1.5785,10.53579 -0.4631,3.16571 -0.7515,6.4031 -0.5844,9.59821 0.1263,2.41901 0.6696,4.8052 0.5276,7.22339 -0.2657,4.5249 -0.779,8.96472 -2.2577,13.24941 -2.86116,8.29019 -6.20787,16.5862 -11.15196,23.82991 -2.6507,3.88368 -6.3124,6.98277 -9.71909,10.22368 -2.0202,1.92191 -4.28271,3.57471 -6.34262,5.4541 -2.23568,2.0397 -3.90549,4.79692 -6.52439,6.3137 -5.18329,3.00191 -11.35639,3.99901 -17.26499,4.9821 -11.89761,1.97951 -19.46861,2.92222 -30.43251,4.90921 -1.003,0.1818 -2.6005,1.6088 -2.6005,1.6088 0,0 -3.4936,0.69091 -5.1717,1.2696 -3.6239,1.24968 -7.2744,2.6298 -10.4845,4.72499 -3.5212,2.2983 -6.7295,5.17249 -9.3737,8.442 -1.571,1.94249 -2.7648,4.00341 -2.9488,6.49492 -0.091,1.23748 1.097,2.13389 2.333,2.0243 1.7845,-0.1583 3.4805,-0.85212 5.2302,-1.23701 3.3306,-0.73271 6.632,-1.69989 10.0251,-2.0411 2.5011,-0.25151 7.541,0 7.541,0 0,0 1.5058,2.4075 2.4953,3.40979 0.8793,0.89072 1.7497,2.26481 3.0012,2.25631 27.71669,-0.18981 49.4261,0 74.13921,0 12.71095,0 23.41925,-0.2041 38.13295,0 1.4046,0.019 3.6134,-1.68769 3.6164,-3.0925 0.021,-9.92949 0.4868,-29.2445 0.4868,-29.2445 0,0 11.3443,-26.7162 18.0964,-39.67052 4.6562,-8.93299 10.763,-17.05948 13.9898,-26.60229 2.4887,-7.35981 4.6801,-15.20449 4.0686,-22.9494 -0.7539,-9.549 -2.7863,-17.56579 -4.7529,-26.94048 -2.2974,-10.95161 -1.4205,-22.11851 -1.1147,-33.30433 0.3003,-10.98248 2.6408,-21.73078 5.1619,-32.42418 4.1946,-17.7914 10.5034,-34.67949 13.7768,-52.6632 2.9451,-16.18019 5.1025,-32.7938 3.8226,-49.19001 -0.6931,-8.8796 -6.1789,-25.99571 -6.1789,-25.99571 L -710.01354,2.4460681"
         id="path9042"
         inkscape:connector-curvature="0"
         sodipodi:nodetypes="csssssssssssssssssscssssssscssssscsssssssscc" />
      <path
         inkscape:transform-center-y="72.383488"
         inkscape:transform-center-x="-191.09517"
         sodipodi:nodetypes="cssssssssssssscssssssssssssssssssssssssssssc"
         inkscape:connector-curvature="0"
         id="path9044"
         d="m -1808.3977,142.04867 c 0,0 61.6961,-11.8582 92.9377,-12.1536 11.2157,-0.106 22.8425,0.061 33.4412,3.7315 23.5565,8.1581 40.9347,28.93181 63.5358,39.4509 27.1176,12.62131 55.7755,23.06781 85.3019,27.84811 28.4755,4.61 48.7784,5.75749 77.5993,6.96558 5.0653,0.21252 11.6441,4.62222 13.6038,9.2978 3.5133,8.38272 7.8802,12.58692 13.3247,19.86481 5.9041,7.8925 14.201,13.9858 22.755,18.8826 16.5423,9.46981 35.3268,14.648 53.7714,19.45651 42.316,11.0317 85.8239,17.02969 129.4382,20.21358 74.7051,5.45362 150.2568,4.6346 224.67909,-3.84648 67.85857,-7.73322 134.44177,-24.9522 200.39967,-42.67671 98.8345,-26.55919 208.0211,-62.0096 291.895,-95.18521 4.3207,-1.70909 7.2949,-11.87789 7.2949,-11.87789 0,0 125.4482,-40.707 189.4181,-56.485202 62.5735,-15.4339 126.2142,-27.6636 189.7014,-38.756 51.730699,-9.0384 103.674899,-14.2444 155.772299,-20.8473 C 116.33066,15.810268 196.54486,8.5839681 276.75736,1.8147681 c 53.3538,-4.5027 106.8139,-7.6692 160.2556,-10.9711 21.6771,-1.3393001 43.5982,-1.5950001 65.0322,-5.0972991 2.5362,-0.414301 5.7078,-1.422601 5.4365,-3.9779 -0.2659,-2.505799 -3.8018,-4.043201 -6.3193,-4.148701 -21.7958,-0.9131 -43.6211,-0.943599 -65.4218,-1.7273 -52.8986,-1.9015 -105.7564,-4.808598 -158.6343,-7.217299 -81.2884,-3.702801 -162.5818,-7.297301 -243.864501,-11.1218 -55.2894,-2.6015 -110.7007,-7.048201 -165.904999,-11.067201 -53.6542,-3.906001 -107.079,-10.499 -160.6315,-15.6118 -64.9526,-6.201299 -129.7975,-11.909901 -194.8646,-16.7607 -29.9275,-2.2311 -59.95,-2.9791 -89.8935,-4.979901 -37.8576,-2.5296 -75.5917,-6.8394 -113.4786,-8.8802 -58.0089,-3.124597 -116.1531,-2.908197 -174.203,-5.145797 -42.0171,-1.6196 -83.96437,-5.0561 -126.00227,-5.9925 -38.79909,-0.8643 -77.62829,-0.5871 -116.42589,0.3468 -34.5266,0.8311 -69.0985,1.6714 -103.5041,4.677 -22.2326,1.9422 -44.6972,3.3972 -66.3946,8.620598 -27.4252,6.6023 -55.0107,14.8208 -79.6863,28.490199 -24.6883,13.676302 -42.8216,37.037402 -66.4504,52.472302 -14.9184,9.7449991 -29.8444,21.0485991 -47.1956,25.1055991 -22.9083,5.3563999 -51.73,7.0408999 -74.7385,2.1326999 -24.6271,-5.2534999 -45.6009,-21.376 -68.4246,-32.0142 -12.827,-5.9786 -24.8107,-14.3181 -38.5071,-17.879701 -7.7116,-2.005298 -16.1577,-3.889399 -23.8387,-1.769798 -12.4902,3.4465 -31.8027,22.3504 -31.8027,22.3504"
         style="color:#000000;clip-rule:nonzero;display:inline;overflow:visible;visibility:visible;opacity:1;isolation:auto;mix-blend-mode:normal;color-interpolation:sRGB;color-interpolation-filters:linearRGB;solid-color:#000000;solid-opacity:1;fill:#000000;fill-opacity:1;fill-rule:evenodd;stroke:none;stroke-width:2.64583325;stroke-linecap:butt;stroke-linejoin:miter;stroke-miterlimit:4;stroke-dasharray:none;stroke-dashoffset:0;stroke-opacity:1;color-rendering:auto;image-rendering:auto;shape-rendering:auto;text-rendering:auto;enable-background:accumulate" />
      <path
         sodipodi:nodetypes="cscssssssssssssscsccssscsssssscsssssssccssssssc"
         inkscape:transform-center-y="81.348539"
         inkscape:transform-center-x="16.885911"
         inkscape:connector-curvature="0"
         id="path9046"
         d="m -1433.901,224.95607 c 0,0 19.7056,46.0773 31.6264,68.0765 8.6068,15.8832 28.7086,45.9677 28.7086,45.9677 0,0 -4.9229,16.8375 -6.8308,25.3923 -2.5788,11.5638 -4.6278,23.25471 -6.2252,34.99451 -1.5923,11.70239 -1.4365,23.617 -3.3405,35.27269 -2.0404,12.49032 -5.606,24.6843 -8.6344,36.97261 -1.6224,6.5831 -3.4746,13.1082 -5.108,19.6886 -0.9459,3.81111 -3.9009,10.38381 -4.2994,14.2902 -0.3786,3.7108 -0.7472,7.39661 -0.7325,11.1267 0.047,11.95258 0.4633,15.572 0.046,23.3411 -0.4848,9.01901 -0.9247,17.97679 -2.0176,26.94238 -0.2292,1.88011 -0.6196,3.7465 -0.7008,5.6388 -0.1139,2.65542 -0.4469,5.28741 -0.5064,7.94462 -0.064,2.87859 -0.9242,6.6624 -1.7786,9.412 -0.436,1.403 -1.3264,3.3438 -2.2847,4.54959 -0.5311,0.66842 -0.5501,1.68701 -0.5501,1.68701 0,0 -1.9164,3.16399 -2.4568,4.91371 -0.8256,2.6729 -1.134,8.31538 -1.134,8.31538 h 8.3155 c 0,0 2.6609,0.6541 4.0066,0.9072 2.1661,0.4074 4.3409,0.81851 6.539,0.98271 5.3523,0.4 9.6554,0.38709 16.1017,0 2.2286,-0.1338 6.0476,-1.7009 6.0476,-1.7009 0,0 3.4187,0.036 4.9138,-0.18901 1.1901,-0.1791 2.3218,-1.44979 2.4568,-2.64578 0.5087,-4.5071 0.1307,-9.07331 0,-13.6071 -0.094,-3.27991 -0.3122,-6.55611 -0.567,-9.82742 -0.1801,-2.31299 -0.3465,-4.63079 -0.6795,-6.92679 -0.2301,-1.58689 -0.6044,-3.1496 -0.9096,-4.72379 -1.2589,-6.49291 -2.1867,-18.69462 -2.1867,-18.69462 0,0 1.9028,5.33361 2.8761,7.99241 0.877,2.39569 1.6053,4.85438 2.6706,7.17251 1.1927,2.59548 2.3741,5.2592 4.1466,7.49908 0.6304,0.79661 1.7932,1.60771 2.8012,1.7335 1.6797,0.2096 3.6089,-0.82989 4.2659,-2.3899 0.4915,-1.167 0.4495,-2.43399 0.129,-3.65901 -1.3075,-4.99668 -2.7698,-9.76989 -4.136,-14.75078 -1.8748,-6.83512 -4.8397,-20.70471 -4.8397,-20.70471 l 0.2535,-26.4878 c 0,0 11.948,-47.6626 19.0395,-72.9664 3.9615,-14.1355 8.1708,-28.2131 12.9521,-42.09269 3.3822,-9.818 8.0349,-19.18521 11.1198,-29.10041 1.4302,-4.5969 2.7092,-9.27151 3.4087,-14.03459 0.5329,-3.6281 0.9282,-7.33412 0.5872,-10.98521 -1.7493,-18.7284 -8.8999,-36.552 -13.3944,-54.81701 -7.6324,-31.01707 -23.0484,-93.0139 -23.0484,-93.0139"
         style="color:#000000;clip-rule:nonzero;display:inline;overflow:visible;visibility:visible;opacity:1;isolation:auto;mix-blend-mode:normal;color-interpolation:sRGB;color-interpolation-filters:linearRGB;solid-color:#000000;solid-opacity:1;fill:#000000;fill-opacity:1;fill-rule:evenodd;stroke:none;stroke-width:2;stroke-linecap:butt;stroke-linejoin:miter;stroke-miterlimit:4;stroke-dasharray:none;stroke-dashoffset:0;stroke-opacity:1;color-rendering:auto;image-rendering:auto;shape-rendering:auto;text-rendering:auto;enable-background:accumulate" />
      <path
         style="color:#000000;clip-rule:nonzero;display:inline;overflow:visible;visibility:visible;opacity:1;isolation:auto;mix-blend-mode:normal;color-interpolation:sRGB;color-interpolation-filters:linearRGB;solid-color:#000000;solid-opacity:1;fill:#000000;fill-opacity:1;fill-rule:evenodd;stroke:none;stroke-width:3;stroke-linecap:butt;stroke-linejoin:miter;stroke-miterlimit:4;stroke-dasharray:none;stroke-dashoffset:0;stroke-opacity:1;color-rendering:auto;image-rendering:auto;shape-rendering:auto;text-rendering:auto;enable-background:accumulate"
         d="m -968.37461,-11.048832 c 0,0 34.47397,178.568602 58.01057,277.960012 4.1164,17.383 16.2449,37.7974 26.6632,52.3085 6.7809,9.4447 14.6078,18.19741 23.1203,26.11699 9.1596,8.5216 19.5539,15.64101 29.8224,22.78769 17.4566,12.14962 35.5857,20.99771 52.3502,34.08582 10.3074,8.04688 20.1911,16.8896 28.3771,27.08691 8.0588,10.0389 15.9318,19.3362 21.582,30.90328 2.4357,4.98631 4.665,9.11701 6.0874,14.48091 0.9846,3.71279 1.5785,7.5551 2.5349,11.27519 0.7967,3.0987 1.9691,6.45822 3.5074,9.26359 1.1645,2.12402 2.8465,5.38152 3.8741,7.5751 1.923,4.10462 4.4087,8.90511 5.391,13.33011 1.9007,8.5616 3.9249,16.35911 3.503,25.11901 -0.2261,4.69659 -1.1044,9.4655 -2.931,13.79821 -1.1128,2.63948 -3.3573,4.65579 -4.7713,7.14697 -1.4937,2.63211 -1.8626,5.96001 -3.898,8.19981 -2.9176,3.21101 -7.0917,5.19862 -11.1678,6.68481 -9.6536,3.52009 -19.4478,4.6887 -29.6766,5.6652 -1.0148,0.097 -2.6006,1.6088 -2.6006,1.6088 0,0 -3.4936,0.69091 -5.1718,1.2696 -3.6239,1.24968 -7.8089,2.6298 -11.0189,4.72499 -3.5212,2.29841 -6.195,5.17249 -8.8393,8.442 -1.571,1.9425 -2.7628,4.0371 -3.2108,6.49492 -0.2226,1.22068 1.3638,2.4461 2.595,2.2915 1.7775,-0.22302 3.4805,-1.11932 5.2302,-1.50421 3.3306,-0.73271 6.632,-1.69989 10.0252,-2.0411 2.5011,-0.25151 7.541,0 7.541,0 0,0 1.5058,2.4075 2.4953,3.40979 0.8793,0.89072 1.7502,2.22001 3.0014,2.25631 16.9461,0.49088 31.2729,0.4123 47.6811,0 47.5697,-1.1956 57.8256,-9.7392 68.4426,-26.30831 0.7579,-1.18269 0.8172,-3.37839 0.3504,-4.70329 -4.1037,-11.6482 -8.9739,-27.3989 -8.9739,-27.3989 0,0 -5.0418,-33.00801 -6.052,-51.22532 -0.4697,-8.47058 0.466,-16.85768 -0.6911,-25.26199 -1.1327,-8.2246 -3.0677,-19.8824 -7.6452,-26.80859 -5.2814,-7.9911 -11.9493,-15.17981 -18.1338,-22.4944 -7.2248,-8.54501 -10.242,-15.72231 -15.2875,-25.71019 -4.9536,-9.80652 -8.8874,-21.28251 -11.796,-31.87722 -4.8803,-17.776 -6.2729,-32.48329 -13.3462,-53.8286 -5.1732,-15.61119 -11.0908,-31.28021 -20.0069,-45.0995 -4.8287,-7.48408 -17.788,-19.9386 -17.788,-19.9386 l 46.1614,-273.395401"
         id="path9048"
         inkscape:connector-curvature="0"
         sodipodi:nodetypes="csssssssssssssssssscssssssscssssscsssssssscc" />
      <g
         inkscape:transform-center-y="30.497889"
         inkscape:transform-center-x="949.36452"
         id="g9058"
         transform="rotate(-0.91478347,95642.929,115167.29)"
         style="fill:#000000">
        <g
           inkscape:transform-center-y="37.398174"
           inkscape:transform-center-x="123.11838"
           transform="rotate(3.5245149,1663.2849,-107.4211)"
           id="g9056"
           style="fill:#000000">
          <path
             style="color:#000000;clip-rule:nonzero;display:inline;overflow:visible;visibility:visible;opacity:1;isolation:auto;mix-blend-mode:normal;color-interpolation:sRGB;color-interpolation-filters:linearRGB;solid-color:#000000;solid-opacity:1;fill:#000000;fill-opacity:1;fill-rule:evenodd;stroke:none;stroke-width:0.26458332;stroke-linecap:butt;stroke-linejoin:miter;stroke-miterlimit:4;stroke-dasharray:none;stroke-dashoffset:0;stroke-opacity:1;color-rendering:auto;image-rendering:auto;shape-rendering:auto;text-rendering:auto;enable-background:accumulate"
             d="m -65.552078,-1371.2282 c 0,0 4.340204,16.6581 6.696717,25.7038 4.599133,17.6542 9.825199,42.5025 9.825199,42.5025 l 138.69021,-45.0917 -13.710927,-43.8299 -124.844483,-0.2672 z"
             id="path9050"
             inkscape:connector-curvature="0"
             sodipodi:nodetypes="csccccc" />
          <path
             style="color:#000000;clip-rule:nonzero;display:inline;overflow:visible;visibility:visible;opacity:1;isolation:auto;mix-blend-mode:normal;color-interpolation:sRGB;color-interpolation-filters:linearRGB;solid-color:#000000;solid-opacity:1;fill:#000000;fill-opacity:1;fill-rule:evenodd;stroke:none;stroke-width:0.46360365;stroke-linecap:butt;stroke-linejoin:miter;stroke-miterlimit:4;stroke-dasharray:none;stroke-dashoffset:0;stroke-opacity:1;color-rendering:auto;image-rendering:auto;shape-rendering:auto;text-rendering:auto;enable-background:accumulate"
             d="m 107.87403,-1374.2287 c 0,0 0.70811,7.7622 -2.45612,15.3547 -3.16416,7.5925 -12.417234,22.3097 -18.670007,26.7085 -6.252737,4.399 -49.103808,30.3891 -62.685701,34.6656 -13.582023,4.2761 -43.740508,16.5495 -60.867045,26.1076 -17.126374,9.5585 -30.398647,17.9631 -36.089795,21.7189 -5.691131,3.7558 -11.944791,5.725 -16.77558,6.7552 -4.830874,1.0302 -16.536022,1.2788 -16.536022,1.2788 0,0 -5.21234,0.8487 -8.45006,0.4506 -8.42519,-1.0294 -18.33165,-9.0526 -18.33165,-9.0526 0,0 6.82666,-5.6399 13.44668,-14.6304 6.77304,-9.1984 15.97906,-18.4505 20.683107,-22.0421 9.301908,-7.1019 22.078069,-9.4063 22.078069,-9.4063 0,0 8.300992,-4.8229 16.014636,-9.9519 7.713548,-5.1292 17.813966,-11.2547 17.813966,-11.2547 l 2.026384,-6.0388 23.480084,-13.5299 14.2362968,-5.4642 18.2563462,-6.7303"
             id="path9052"
             inkscape:connector-curvature="0"
             sodipodi:nodetypes="csssscscscssccccccc"
             inkscape:transform-center-x="97.161417"
             inkscape:transform-center-y="39.305208" />
          <path
             style="color:#000000;clip-rule:nonzero;display:inline;overflow:visible;visibility:visible;opacity:1;isolation:auto;mix-blend-mode:normal;color-interpolation:sRGB;color-interpolation-filters:linearRGB;solid-color:#000000;solid-opacity:1;fill:#000000;fill-opacity:1;fill-rule:evenodd;stroke:none;stroke-width:0.46360365;stroke-linecap:butt;stroke-linejoin:miter;stroke-miterlimit:4;stroke-dasharray:none;stroke-dashoffset:0;stroke-opacity:1;color-rendering:auto;image-rendering:auto;shape-rendering:auto;text-rendering:auto;enable-background:accumulate"
             d="m 12.167817,-1366.0523 -27.508522,-1.7598 -31.455943,4.0508 -4.184309,-4.258 -13.266534,2.0275 c 0,0 -10.541943,12.0868 -15.704031,18.223 -5.408553,6.4291 -9.632044,13.9929 -15.995186,19.4789 -5.741422,4.95 -12.326152,9.2643 -19.509192,11.6872 -5.54223,1.8693 -11.5958,1.6873 -17.43926,1.9422 -5.37718,0.2346 -10.8067,0.3237 -16.14237,-0.3832 -3.91697,-0.5189 -7.82367,-1.4042 -11.51464,-2.8143 -3.19372,-1.2203 -9.04882,-4.8289 -9.04882,-4.8289 0,0 3.2574,-16.1059 6.03646,-23.8064 2.50449,-6.9395 5.45573,-13.8227 9.51471,-19.9834 3.40135,-5.1627 7.34054,-10.1644 12.24042,-13.9345 7.36762,-5.6686 16.56259,-8.8748 24.94761,-12.8883 14.64393,-7.0091 29.10617,-14.043 43.020545,-22.4073 6.813391,-4.0958 12.79421,-9.5261 19.769419,-13.3398 6.806079,-3.7212 13.993066,-6.8127 21.369,-9.214 4.673375,-1.5215 10.242658,-2.3825 14.805369,-4.2092 3.371552,-1.3497 8.4352773,-5.0831 8.4352773,-5.0831 0,0 0.3599524,-3.7801 1.1406549,-5.6792 1.303776,-3.1714 3.6620247,-6.0011 6.4217938,-8.0362 3.5162175,-2.5928 8.1024494,-3.2739 12.199605,-4.7904 6.183869,-2.2888 12.135167,-5.7231 18.68306,-6.5003 3.211655,-0.3813 6.430436,0.7125 9.655577,0.9545 4.770697,0.358 9.576782,1.2469 14.33351,0.7356 5.723841,-0.6153 11.298846,-2.4476 16.665595,-4.5306 3.679369,-1.4282 7.117652,-3.4314 10.529433,-5.4156 1.330718,-0.7739 2.409832,-2.028 3.866795,-2.5251 2.291233,-0.7816 4.827382,-0.7736 7.239946,-0.5732 3.248339,0.2697 6.627618,1.303 9.50878,2.8272 4.82991,2.5552 9.64034,6.8467 12.7211,11.3596 2.17104,3.1804 2.89967,6.1229 3.5119,9.9248 0.59771,3.7116 0.78894,7.7077 -0.41009,11.2709 -5.70709,16.9595 -16.49248,38.2777 -16.49248,38.2777 l -5.181572,-10.5403 0.306396,61.6359 -5.577775,11.044 -8.420351,0.3941 -5.854453,-4.8831"
             id="path9054"
             inkscape:connector-curvature="0"
             sodipodi:nodetypes="cccccsssssscsssssssscsssssssssssssscccccc" />
        </g>
      </g>
    </g>
  </g>
</svg>
