<?xml version="1.0" encoding="UTF-8" standalone="no"?>
<!-- Created with Inkscape (http://www.inkscape.org/) -->

<svg
   xmlns:dc="http://purl.org/dc/elements/1.1/"
   xmlns:cc="http://creativecommons.org/ns#"
   xmlns:rdf="http://www.w3.org/1999/02/22-rdf-syntax-ns#"
   xmlns:svg="http://www.w3.org/2000/svg"
   xmlns="http://www.w3.org/2000/svg"
   xmlns:sodipodi="http://sodipodi.sourceforge.net/DTD/sodipodi-0.dtd"
   xmlns:inkscape="http://www.inkscape.org/namespaces/inkscape"
   width="226.4615mm"
   height="72.252983mm"
   viewBox="0 0 802.42265 256.01451"
   id="svg23559"
   version="1.1"
   inkscape:version="0.91 r13725"
   sodipodi:docname="Iguanodon.svg">
  <defs
     id="defs23561" />
  <sodipodi:namedview
     id="base"
     pagecolor="#ffffff"
     bordercolor="#666666"
     borderopacity="1.0"
     inkscape:pageopacity="0.0"
     inkscape:pageshadow="2"
     inkscape:zoom="0.35"
     inkscape:cx="276.21066"
     inkscape:cy="65.978552"
     inkscape:document-units="px"
     inkscape:current-layer="layer1"
     showgrid="false"
     fit-margin-top="0"
     fit-margin-left="0"
     fit-margin-right="0"
     fit-margin-bottom="0"
     inkscape:window-width="1366"
     inkscape:window-height="709"
     inkscape:window-x="0"
     inkscape:window-y="0"
     inkscape:window-maximized="1" />
  <metadata
     id="metadata23564">
    <rdf:RDF>
      <cc:Work
         rdf:about="">
        <dc:format>image/svg+xml</dc:format>
        <dc:type
           rdf:resource="http://purl.org/dc/dcmitype/StillImage" />
        <dc:title></dc:title>
      </cc:Work>
    </rdf:RDF>
  </metadata>
  <g
     inkscape:label="Layer 1"
     inkscape:groupmode="layer"
     id="layer1"
     transform="translate(391.21066,-685.18339)">
    <path
       style="fill:#000000;fill-rule:evenodd;stroke:none;stroke-width:1px;stroke-linecap:butt;stroke-linejoin:miter;stroke-opacity:1"
       d="m 410.11437,730.52964 c 2.00296,-4.59322 0.94408,-7.14249 -0.62638,-11.90097 -1.46576,-4.44134 -4.79282,-8.23995 -8.35157,-11.27462 -6.20565,-5.29179 -14.9851,-4.39596 -20.46133,-10.43947 -0.50333,-0.55545 -1.61164,-1.30026 -2.0879,-1.8791 -1.79077,-2.17638 -4.34711,-0.717 -6.68126,-2.29668 -5.78906,-3.91784 -12.40847,-5.47985 -19.20859,-7.09883 -9.17284,-2.18388 -27.97774,4.1758 -27.97774,4.1758 0,0 -30.30941,30.09056 -50.10941,34.24141 -30.9137,6.48071 -61.67942,-14.5132 -93.11994,-17.53829 -24.38572,-2.3463 -49.05109,-2.06754 -73.49379,-0.41758 -27.771179,1.87463 -55.256399,6.93074 -82.680504,11.6922 -27.1650145,4.71646 -53.764705,12.47631 -81.010196,16.70314 -73.85308,11.45746 -148.706,15.14358 -222.98681,23.38437 -39.27923,4.35769 -66.40013,4.80745 -105.65962,13.18955 -33.90127,7.23808 66.82185,1.18303 102.72428,2.56483 60.55439,2.33058 118.69626,2.00151 177.1965,17.81258 24.748352,6.68882 58.329956,21.13581 58.329956,21.13581 16.874825,15.94214 46.64397754,22.08953 64.665275,38.24423 3.112382,5.83574 10.142529,27.53028 7.128515,37.99963 -0.879808,3.05606 -3.457274,5.60323 -3.758199,8.76914 -0.431438,4.53903 1.575165,9.84837 1.461535,14.40646 -0.145676,5.83972 -8.000072,16.18263 -3.131844,19.41123 6.211899,4.11973 13.434483,8.60262 20.491004,8.94827 11.094463,0.54345 31.635238,0.41759 31.635238,0.41759 -2.08789,-2.989 -9.254486,-6.86439 -11.342376,-8.20829 0,0 -9.287342,-2.48937 -14.727194,-4.9393 -2.109436,-0.95001 -0.670322,-2.93702 -1.879099,-4.90961 -0.643338,-1.04986 -2.242777,-1.36803 -2.714263,-2.50547 -2.026991,-4.88997 -1.398056,-10.97695 0.626372,-15.86798 0.941782,-2.27537 4.354064,-3.05517 5.010944,-5.42851 0.910216,-3.28871 -0.05771,-4.55492 0.417581,-7.934 2.038335,-14.48913 13.717005,-24.57202 16.774771,-39.15104 0.171438,-0.81737 0,-2.50547 0,-2.50547 l 15.909944,-1.67031 c 1.321101,1.05689 5.767498,35.0487 0.641204,43.82475 -2.982729,5.10632 -4.580663,7.92849 -5.276533,13.80105 -1.160659,9.7949 5.559319,19.70125 6.681253,28.8261 0.356715,2.90119 0,6.70224 0,6.70224 l 44.196146,0 c -0.56604,-0.55794 5.93095,-0.64635 11.65861,-0.41757 -2.21996,-3.58211 -7.56695,-7.60111 -12.14783,-8.03532 l -24.34636,-8.77783 c 0,0 -1.58406,-2.40216 -2.08789,-3.73721 -1.194888,-3.16632 -1.210083,-5.97226 -2.138538,-9.92506 -0.378558,-1.61166 -1.396039,-4.76634 -1.396039,-4.76634 0,0 21.396707,-32.22889 28.521237,-51.99465 1.05541,-2.92805 1.67031,-9.18673 1.67031,-9.18673 18.59194,3.6155 34.52543,-0.14584 54.6608,-4.24743 0,0 -1.63936,5.51306 -2.12986,9.18675 -2.48981,18.64767 -5.77896,51.77971 -5.77896,51.77971 l -10.43945,27.14257 11.24495,-15.86797 c 1.65598,9.62937 3.30924,24.43077 7.96365,28.81292 l 29.16333,0.41756 c -8.12051,-6.05453 -8.1847,-15.13017 -10.43945,-23.38438 l 21.25452,-3.2357 -26.26547,-10.96196 c 2.64467,-16.84232 9.47421,-33.68466 7.934,-50.52697 0,0 4.63622,-14.67252 10.78539,-18.01523 13.06217,-7.10069 26.84547,-17.19879 35.35699,-32.51174 4.16646,-7.4958 0.92618,-17.26098 6.47246,-23.80198 10.33155,-12.18448 30.64366,-10.02433 44.2633,-18.37345 11.70027,-7.1725 18.03674,-23.2697 31.31838,-26.72501 11.677,-3.03786 25.78759,-4.22719 37.16448,-0.20879 6.51623,2.30159 13.57261,0.7064 20.04375,3.13185 3.35099,1.25598 7.39541,2.3691 10.85704,1.46151 5.14466,-1.34888 8.10475,-2.64122 10.23068,-7.51641 z"
       id="path21073"
       inkscape:connector-curvature="0"
       sodipodi:nodetypes="ssssssscsssssssssccsssssccsssssssccssscccccsscsccscccccccccsssssssss" />
  </g>
</svg>
