<?xml version="1.0" encoding="UTF-8" standalone="no"?>
<!-- Created with Inkscape (http://www.inkscape.org/) -->

<svg
   xmlns:dc="http://purl.org/dc/elements/1.1/"
   xmlns:cc="http://creativecommons.org/ns#"
   xmlns:rdf="http://www.w3.org/1999/02/22-rdf-syntax-ns#"
   xmlns:svg="http://www.w3.org/2000/svg"
   xmlns="http://www.w3.org/2000/svg"
   xmlns:sodipodi="http://sodipodi.sourceforge.net/DTD/sodipodi-0.dtd"
   xmlns:inkscape="http://www.inkscape.org/namespaces/inkscape"
   version="1.1"
   id="svg815"
   width="918.60474"
   height="341.13593"
   viewBox="0 0 918.60474 341.13593"
   sodipodi:docname="Spinosaurus silhouette.svg"
   inkscape:version="0.92.4 (5da689c313, 2019-01-14)">
  <metadata
     id="metadata821">
    <rdf:RDF>
      <cc:Work
         rdf:about="">
        <dc:format>image/svg+xml</dc:format>
        <dc:type
           rdf:resource="http://purl.org/dc/dcmitype/StillImage" />
        <dc:title></dc:title>
      </cc:Work>
    </rdf:RDF>
  </metadata>
  <defs
     id="defs819" />
  <sodipodi:namedview
     pagecolor="#ffffff"
     bordercolor="#666666"
     borderopacity="1"
     objecttolerance="10"
     gridtolerance="10"
     guidetolerance="10"
     inkscape:pageopacity="0"
     inkscape:pageshadow="2"
     inkscape:window-width="1920"
     inkscape:window-height="1001"
     id="namedview817"
     showgrid="false"
     inkscape:zoom="0.63981496"
     inkscape:cx="419.08936"
     inkscape:cy="303.62521"
     inkscape:window-x="-9"
     inkscape:window-y="-9"
     inkscape:window-maximized="1"
     inkscape:current-layer="svg815"
     fit-margin-top="0"
     fit-margin-left="0"
     fit-margin-right="0"
     fit-margin-bottom="0" />
  <g
     id="g955">
    <path
       inkscape:connector-curvature="0"
       id="path833"
       d="m 319.03481,241.1691 c 0,0 3.86811,27.62935 5.94031,30.11599 2.0722,2.48664 -0.55259,28.45823 -19.61684,34.67483 -19.06425,6.2166 -19.75498,7.66715 -19.75498,7.66715 0,0 -3.45367,3.93718 -2.34849,5.45679 1.10517,1.51962 31.6356,1.72684 34.67483,1.65776 3.03923,-0.0691 5.94031,0.34537 10.56822,-8.42695 4.62792,-8.77232 14.98892,-26.73139 14.98892,-26.73139 0,0 1.65776,-5.38772 -0.62166,-14.43634 -2.27942,-9.04861 6.14753,-30.46135 6.14753,-30.46135"
       style="fill:#bc2e2e;fill-opacity:1;stroke:#000000;stroke-width:1.00999999;stroke-linecap:butt;stroke-linejoin:miter;stroke-miterlimit:4;stroke-dasharray:none;stroke-opacity:1" />
    <path
       sodipodi:nodetypes="cssssccscscssssssccccssssssssssssscsscccscsccccsscccsscccscccscscsssscccsscccccccscsscc"
       inkscape:connector-curvature="0"
       id="path827"
       d="m 344.36199,335.38895 c 0,0 3.61433,-0.19537 4.49349,-0.87916 0.87916,-0.68379 3.32127,2.5398 5.37264,2.5398 2.05138,0 9.67077,2.73517 27.44935,-0.87916 17.77857,-3.61433 17.09478,-3.90738 16.60636,-15.43415 -0.48842,-11.52677 -0.19537,-29.10998 0.29305,-30.37988 0.48843,-1.2699 0,-5.07959 -2.63748,-8.01013 -2.63748,-2.93053 -5.95875,-17.48552 -5.76338,-25.49565 0.19537,-8.01013 -0.58611,-10.25687 -1.75832,-11.3314 -1.17222,-1.07453 27.15629,-6.54486 28.71924,-5.86107 1.56295,0.68379 5.07959,-4.78654 7.22865,-5.37265 2.14906,-0.5861 26.27713,-9.86613 41.80896,-10.35455 15.53184,-0.48843 41.51591,-0.68379 47.37698,-2.34443 5.86107,-1.66064 48.25614,-8.49855 56.55932,-10.45224 8.30319,-1.95369 48.45151,-6.9356 69.356,-12.89435 20.9045,-5.95876 70.6259,-13.96889 86.3531,-12.50362 15.7272,1.46527 64.1787,-3.41896 75.9985,-0.0977 11.8198,3.32127 48.7446,6.74023 61.7366,10.0615 12.9921,3.32127 37.8039,6.54486 48.94,14.16425 11.136,7.61939 2.8328,-3.41896 -0.6838,-5.17728 -3.5167,-1.75832 -28.817,-15.23878 -43.665,-18.56005 -14.8481,-3.32127 -40.6368,-12.69899 -50.6006,-15.82489 -9.9638,-3.1259 -54.1172,-10.35456 -75.217,-13.8712 -21.0999,-3.51664 -88.6976,-9.96382 -96.9031,-13.28509 -8.2055,-3.32127 -63.2995,-14.65267 -84.39935,-34.97105 C 539.92634,87.85643 524.49219,55.22981 519.02186,51.32243 513.55153,47.41505 504.56456,28.65963 474.6731,14.78843 444.78165,0.91723 396.72088,-7.679006 330.88153,12.444 265.04218,32.56701 234.17388,26.11983 212.09719,37.84197 c -22.0767,11.72214 -36.14327,30.67293 -43.76266,48.45151 -7.61939,17.77857 -14.26193,24.81186 -20.51374,23.05354 -6.25181,-1.75832 -14.4573,-4.68886 -10.94066,-25.59334 3.51664,-20.90448 5.07959,-39.46454 -5.86107,-62.32271 C 120.07839,-1.427198 85.88882,8.14588 78.4648,11.85789 c -7.42402,3.71201 -11.52677,7.61939 -11.52677,7.61939 0,0 -4.57985,-4.59255 -4.30356,-8.46066 0.27629,-3.86811 -13.95282,2.0722 -11.88062,12.01877 2.0722,9.94656 1.93406,7.87436 1.93406,7.87436 L 8.91344,81.01851 c 0,0 -8.69392,5.0796 -8.40086,10.25688 0.29305,5.17727 3.1259,7.91244 4.49348,7.71707 1.36758,-0.19537 2.93054,4.00506 2.93054,4.00506 0,0 0.5861,-2.73516 0.5861,-2.34442 0,0.39073 3.61433,3.41895 3.61433,3.41895 l -1.95369,-6.93559 2.83285,3.90737 c 0,0 4.78654,1.66064 8.69392,0.19537 3.90738,-1.46526 8.2055,-12.50361 18.36468,-14.65267 10.15919,-2.14906 19.63459,-2.63748 25.30029,0.19537 5.6657,2.83285 12.6013,1.2699 12.6013,1.2699 0,0 2.93053,-0.19537 3.41896,5.95875 0.48842,6.15412 0.68379,16.80173 2.14905,18.65774 1.46527,1.856 3.8097,2.63748 4.00507,5.6657 0.19537,3.02822 -0.39074,23.15123 6.74023,31.55209 7.13097,8.40087 4.10275,28.13314 20.41606,25.00723 0,0 9.28002,10.15921 12.6013,11.72216 3.32127,1.56295 9.18234,3.61433 10.74529,3.71201 1.56295,0.0977 5.86107,18.65774 12.99204,21.88133 7.13097,3.22359 31.25904,9.18234 33.4081,14.35962 2.14905,5.17728 6.93559,12.89435 8.49855,13.67583 1.56295,0.78147 5.47033,12.11287 9.47539,17.19247 4.00507,5.07959 7.22865,8.49855 7.42402,11.81982 0.19537,3.32127 0.68379,13.08972 0.68379,13.08972 0,0 -3.41895,3.22359 -2.53979,6.25181 0.87916,3.02822 1.70948,5.32381 3.90738,3.95622 2.1979,-1.36758 2.78401,-2.73516 6.00759,-2.97937 3.22359,-0.24421 -1.56295,-9.96382 -0.68379,-10.64761 0.87916,-0.68379 4.39581,-1.02569 7.08213,7.08212 2.68632,8.10782 3.76085,3.51664 4.00506,7.13097 0.24421,3.61433 -1.0765,3.32192 1.41014,6.08486 2.48664,2.76293 5.8367,4.07533 6.38928,1.20878 0.55259,-2.86654 6.73466,-3.97172 6.73466,-3.97172 0,0 2.21034,-5.80216 2.03766,-6.42382 -0.17268,-0.62166 3.1083,8.87593 6.83826,8.77232 3.72997,-0.10361 3.79904,-1.24332 4.48977,-3.72996 0.69074,-2.48665 3.41914,-9.39398 -0.17268,-13.05487 -3.59181,-3.66089 -3.50133,-3.97784 -3.50133,-3.97784 0,0 0.73263,-4.93307 -0.29306,-6.44718 -1.02568,-1.51411 -9.28002,-11.52677 -13.04088,-13.5293 -3.76085,-2.00253 -18.11585,-26.02026 -17.42512,-32.78945 0,0 44.23952,4.80284 51.2728,7.34264 7.03328,2.53979 45.9825,11.30717 50.95578,13.79381 4.97329,2.48664 23.03988,8.05621 29.34087,5.54772 0,0 10.15919,13.87119 16.80174,20.51374 6.64254,6.64255 13.08972,34.97105 7.81476,44.7395 -5.27497,9.76845 -18.9508,8.98697 -24.22576,11.52677 -5.27496,2.53979 -9.37771,2.93053 -9.37771,6.64254"
       style="fill:#bc2e2e;fill-opacity:1;stroke:#000000;stroke-width:1.00999999;stroke-linecap:butt;stroke-linejoin:miter;stroke-miterlimit:4;stroke-dasharray:none;stroke-opacity:1" />
    <path
       inkscape:connector-curvature="0"
       id="path846"
       d="m 285.6033,313.62707 c 0,0 -6.2015,2.1273 -7.27603,5.35089 -1.07453,3.22359 -0.39073,-0.29305 5.76339,-1.56295"
       style="fill:#bc2e2e;fill-opacity:1;stroke:#000000;stroke-width:1.00999999;stroke-linecap:butt;stroke-linejoin:miter;stroke-miterlimit:4;stroke-dasharray:none;stroke-opacity:1" />
    <path
       style="fill:#bc2e2e;fill-opacity:1;stroke:#000000;stroke-width:1.00999999;stroke-linecap:butt;stroke-linejoin:miter;stroke-miterlimit:4;stroke-dasharray:none;stroke-opacity:1"
       d="m 349.97824,330.70986 c 0,0 -6.2015,2.1273 -7.27603,5.35089 -1.07453,3.22359 -0.39073,-0.29305 5.76339,-1.56295"
       id="path848"
       inkscape:connector-curvature="0" />
    <path
       inkscape:connector-curvature="0"
       id="path852"
       d="m 218.30015,289.4284 c 0,0 2.14906,7.66823 -0.73263,13.67583 -2.88169,6.00759 -4.49349,6.5937 -4.49349,6.5937 0,0 3.12591,-5.3238 1.31874,-10.4034 -1.80716,-5.07959 -2.78401,-7.5217 -2.78401,-7.5217 0,0 4.00507,-4.05391 6.69139,-2.34443 z"
       style="fill:#bc2e2e;fill-opacity:1;stroke:#000000;stroke-width:1.00999999;stroke-linecap:butt;stroke-linejoin:miter;stroke-miterlimit:4;stroke-dasharray:none;stroke-opacity:1" />
    <path
       style="fill:#bc2e2e;fill-opacity:1;stroke:#000000;stroke-width:1.00999999;stroke-linecap:butt;stroke-linejoin:miter;stroke-miterlimit:4;stroke-dasharray:none;stroke-opacity:1"
       d="m 241.328,296.02157 c 0,0 4.65658,7.91448 3.24761,15.48008 -1.40898,7.5656 -3.02044,8.70158 -3.02044,8.70158 0,0 1.88246,-6.87556 -1.62707,-12.00359 -3.50952,-5.12802 -5.31644,-7.56112 -5.31644,-7.56112 0,0 3.23325,-5.72135 6.71634,-4.61695 z"
       id="path854"
       inkscape:connector-curvature="0" />
    <path
       style="fill:#bc2e2e;fill-opacity:1;stroke:#000000;stroke-width:1.00999999;stroke-linecap:butt;stroke-linejoin:miter;stroke-miterlimit:4;stroke-dasharray:none;stroke-opacity:1"
       d="m 256.31431,290.9765 c 0,0 6.26254,3.78679 8.25658,9.88586 1.99404,6.09906 1.33975,7.60708 1.33975,7.60708 0,0 -1.40206,-5.79747 -5.79519,-8.04272 -4.39312,-2.24527 -6.57411,-3.25061 -6.57411,-3.25061 0,0 -0.0311,-5.52939 2.77297,-6.19961 z"
       id="path856"
       inkscape:connector-curvature="0" />
    <path
       inkscape:connector-curvature="0"
       id="path858"
       d="m 364.41457,333.95631 c 0,0 -6.2015,2.1273 -7.27603,5.35089 -1.07453,3.22359 -0.39073,-0.29305 5.76339,-1.56295"
       style="fill:#bc2e2e;fill-opacity:1;stroke:#000000;stroke-width:1.00999999;stroke-linecap:butt;stroke-linejoin:miter;stroke-miterlimit:4;stroke-dasharray:none;stroke-opacity:1" />
    <path
       inkscape:connector-curvature="0"
       id="path860"
       d="m 364.1017,334.12745 c 0,0 12.82884,-6.89167 15.57757,-11.79859"
       style="fill:#bc2e2e;stroke:#000000;stroke-width:1.00999999;stroke-linecap:butt;stroke-linejoin:miter;stroke-miterlimit:4;stroke-dasharray:none;stroke-opacity:1;fill-opacity:1" />
    <path
       style="fill:#bc2e2e;fill-opacity:1;stroke:#000000;stroke-width:1.00999999;stroke-linecap:butt;stroke-linejoin:miter;stroke-miterlimit:4;stroke-dasharray:none;stroke-opacity:1"
       d="m 295.90901,316.02034 c 0,0 -6.2015,2.1273 -7.27603,5.35089 -1.07453,3.22359 -0.39073,-0.29305 5.76339,-1.56295"
       id="path862"
       inkscape:connector-curvature="0" />
    <path
       inkscape:connector-curvature="0"
       id="path866"
       d="m 295.90901,316.02034 c 0,0 14.76792,-6.19231 18.22159,-10.61301"
       style="fill:#bc2e2e;stroke:#000000;stroke-width:1.00999999;stroke-linecap:butt;stroke-linejoin:miter;stroke-miterlimit:4;stroke-dasharray:none;stroke-opacity:1;fill-opacity:1" />
    <path
       inkscape:connector-curvature="0"
       id="path870"
       d="m 252.53857,278.04816 c 0,0 -12.16172,-14.50615 -14.65268,-20.66027"
       style="fill:#bc2e2e;stroke:#000000;stroke-width:1.00999999;stroke-linecap:butt;stroke-linejoin:miter;stroke-miterlimit:4;stroke-dasharray:none;stroke-opacity:1;fill-opacity:1" />
    <path
       inkscape:connector-curvature="0"
       id="path872"
       d="m 221.77951,225.28223 c 0,0 -11.63601,-10.63131 -13.68739,-18.2507 -2.05137,-7.61939 -6.34949,-17.29016 -12.89435,-18.56005 -6.54486,-1.2699 -15.43415,-3.12591 -18.75542,-6.05644"
       style="fill:#bc2e2e;stroke:#000000;stroke-width:1.00999999;stroke-linecap:butt;stroke-linejoin:miter;stroke-miterlimit:4;stroke-dasharray:none;stroke-opacity:1;fill-opacity:1" />
    <path
       inkscape:connector-curvature="0"
       id="path934"
       d="m 353.34896,251.9664 c 0,0 -0.19537,-9.28003 -7.13096,-16.89942 -6.9356,-7.61939 -10.35456,-12.89435 -13.2851,-12.99204 -2.93053,-0.0977 -8.7916,-0.68379 -10.0615,-3.71201"
       style="fill:#bc2e2e;stroke:#000000;stroke-width:1.00999999;stroke-linecap:butt;stroke-linejoin:miter;stroke-miterlimit:4;stroke-dasharray:none;stroke-opacity:1;fill-opacity:1" />
  </g>
</svg>
