<?xml version="1.0" encoding="UTF-8" standalone="no"?>
<!-- Created with Inkscape (http://www.inkscape.org/) -->

<svg
   xmlns:dc="http://purl.org/dc/elements/1.1/"
   xmlns:cc="http://creativecommons.org/ns#"
   xmlns:rdf="http://www.w3.org/1999/02/22-rdf-syntax-ns#"
   xmlns:svg="http://www.w3.org/2000/svg"
   xmlns="http://www.w3.org/2000/svg"
   xmlns:sodipodi="http://sodipodi.sourceforge.net/DTD/sodipodi-0.dtd"
   xmlns:inkscape="http://www.inkscape.org/namespaces/inkscape"
   id="svg3086"
   version="1.1"
   inkscape:version="0.47 r22583"
   width="117.67169"
   height="67.944969"
   sodipodi:docname="Stegosaurus_silhouette.svg">
  <sodipodi:namedview
     pagecolor="#ffffff"
     bordercolor="#666666"
     borderopacity="1"
     objecttolerance="10"
     gridtolerance="10"
     guidetolerance="10"
     inkscape:pageopacity="0"
     inkscape:pageshadow="2"
     inkscape:window-width="1680"
     inkscape:window-height="972"
     id="namedview3088"
     showgrid="false"
     inkscape:zoom="57.891855"
     inkscape:cx="96.223202"
     inkscape:cy="4.6326115"
     inkscape:window-x="0"
     inkscape:window-y="24"
     inkscape:window-maximized="1"
     inkscape:current-layer="svg3086" />
  <metadata
     id="metadata3092">
    <rdf:RDF>
      <cc:Work
         rdf:about="">
        <dc:format>image/svg+xml</dc:format>
        <dc:type
           rdf:resource="http://purl.org/dc/dcmitype/StillImage" />
        <dc:title></dc:title>
      </cc:Work>
    </rdf:RDF>
  </metadata>
  <defs
     id="defs3090">
    <inkscape:perspective
       id="perspective3094"
       inkscape:persp3d-origin="0.5 : 0.33333333 : 1"
       inkscape:vp_z="1 : 0.5 : 1"
       inkscape:vp_y="0 : 1000 : 0"
       inkscape:vp_x="0 : 0.5 : 1"
       sodipodi:type="inkscape:persp3d" />
  </defs>
  <path
     style="fill:#000000"
     d="M 58.16097,3.5124132e-4 C 56.37962,-0.06462776 53.31679,8.9061662 54.66097,10.250351 c 0.61332,0.613318 1.125,1.748905 1.125,2.53125 0,1.151013 -0.28624,1.163589 -1.5,0.15625 -0.825,-0.684689 -1.5,-2.7056 -1.5,-4.4999998 0,-5.1062049 -7.14246,-8.94297156 -8.3125,-4.46875 -0.34808,1.331071 0.14348,2.355432 1.40625,3.03125 1.2001,0.642275 1.8621,2.044035 1.8125,3.7499998 l -0.0625,2.6875 -0.96875,-2.59375 C 45.75491,8.3755352 45.22972,8.2045472 36.62972,7.5941012 c -4.98699,-0.353981 -9.47424,-0.399372 -9.96875,-0.09375 -1.32254,0.817378 4.51576,10.7673678 7.09375,12.0937498 1.21435,0.624973 1.73652,1.410689 1.1875,1.75 -1.4689,0.907831 -4.15625,-0.390341 -4.15625,-2 0,-1.877927 -2.17049,-1.766636 -6.1875,0.34375 -1.83208,0.9625 -3.43565,1.80857 -3.59375,1.875 -0.15809,0.06643 0.22924,1.301459 0.875,2.71875 0.97809,2.146659 1.64597,2.477055 4.03125,2 1.75472,-0.350944 2.875,-0.170195 2.875,0.5 0,0.601489 -0.70094,0.83061 -1.5625,0.5 -1.64918,-0.632852 -10.3996,7.173159 -10.4375,9.3125 -0.041,2.315117 5.04227,4.578062 8.84375,3.9375 3.40355,-0.57351 3.53114,-0.515369 1.71875,0.90625 -2.18557,1.714331 -4.38595,1.91227 -6.46875,0.59375 -1.65141,-1.045425 -4.09375,-0.342787 -4.09375,1.1875 0,0.585349 0.73078,1.886896 1.625,2.875 1.26908,1.402312 2.03279,1.568676 3.5625,0.75 1.07788,-0.576859 2.21891,-0.812341 2.53125,-0.5 0.31234,0.312342 -1.09074,1.275032 -3.125,2.125 l -3.6875,1.53125 2.09375,2.96875 c 2.29041,3.216575 2.05135,3.655603 -1,1.75 -1.55591,-0.971679 -2.21404,-0.942209 -3.21875,0.0625 -1.02213,1.022134 -0.98498,1.42897 0.21875,2.21875 1.26572,0.830444 1.12822,1.288908 -0.875,2.96875 -2.97053,2.491002 -3.82916,2.47624 -4.625,-0.03125 -0.9620098,-3.03102 -2.6398098,-2.392868 -1.9687498,0.75 0.53442,2.502878 0.45627,2.592741 -0.84375,1 -0.7856,-0.9625 -2.23164,-1.75 -3.21875,-1.75 -1.7194,0 -1.70807,0.109314 0.0312,2.03125 1.93918,2.142762 1.27114,4.146138 -0.71875,2.15625 -0.65083,-0.650833 -1.8975,-1.17374 -2.74999999,-1.15625 -1.21231,0.02488 -1.0917,0.383291 0.46874999,1.5625 1.72417,1.302922 1.79208,1.629897 0.5,2.53125 -3.23715,2.258247 8.6093198,-0.203554 14.7187498,-3.0625 4.68452,-2.19215 8.67165,-5.363884 15.75,-12.5 9.40543,-9.482192 12.87824,-11.399529 14.21875,-7.90625 0.34413,0.89681 -0.10669,3.03431 -1,4.75 -1.35119,2.595078 -4.51408,10.801627 -4.84375,12.59375 -0.0506,0.275 -0.0339,1.7375 0.0312,3.25 0.10566,2.453634 0.50219,2.75 3.625,2.75 3.32058,0 4.57736,-1.192249 2.5625,-2.4375 -1.40631,-0.869149 0.34331,-5.746589 3.71875,-10.40625 l 2.96875,-4.125 0.5625,2.75 c 0.30882,1.509462 1.09548,5.267995 1.71875,8.375 0.97065,4.838708 1.49988,5.712785 3.65625,6.125 1.38463,0.264693 3.3949,0.249568 4.46875,-0.03125 1.89689,-0.496048 1.87404,-0.551563 -0.25,-2.8125 -2.09868,-2.233942 -2.11937,-2.577949 -0.8125,-8.46875 l 1.34375,-6.15625 3.53125,0.65625 c 1.93758,0.347779 5.835226,0.894751 8.65625,1.21875 0,0 2.77257,-0.451025 3.90625,0.84375 1.56426,1.786539 1.09375,6.84375 1.09375,6.84375 l -0.125,7.125 3.75,0.3125 c 3.716144,0.307563 5.137085,-1.048372 2.25,-2.15625 -2.083746,-0.799609 -1.886853,-4.542782 0.46875,-8.40625 2.465812,-4.044226 3.681701,-4.08672 4.53125,-0.21875 1.144319,5.210044 2.988611,8.854952 5.46875,9.8125 1.225403,0.473111 2.59597,-0.132401 4.125,-0.71875 0,0 0.73262,-0.163673 0.81626,-0.606567 0.12618,-0.668091 -1.03501,-1.330933 -1.03501,-1.330933 -1.67867,-0.659259 -2.82041,-2.024266 -3.1875,-3.84375 -0.31384,-1.555523 -0.84639,-3.63125 -1.21875,-4.59375 -0.60516,-1.564254 0.02707,-1.71917 6.15625,-1.6875 4.04851,0.02092 7.89895,0.593712 9.375,1.4375 5.85019,3.344271 6.65496,1.011793 1.28125,-3.71875 -2.04568,-1.800838 -5.1164,-4.657678 -6.8125,-6.34375 -1.69611,-1.686072 -3.73554,-2.923572 -4.53125,-2.75 -0.93222,0.203348 -0.99294,0.125871 -0.1875,-0.25 0.6875,-0.320834 1.25,-1.278489 1.25,-2.125 0,-1.254717 -0.27717,-1.327361 -1.5,-0.3125 -0.86459,0.717549 -1.5,0.835304 -1.5,0.25 0,-0.558501 0.60053,-1.24605 1.34375,-1.53125 1.10275,-0.423166 1.46396,-4.627731 0.71875,-8.5 -0.0325,-0.168687 -1.05887,0.393813 -2.28125,1.25 -1.22237,0.856187 -2.90987,1.51342 -3.75,1.46875 -0.84012,-0.04467 -0.20659,-0.682097 1.4375,-1.40625 2.15786,-0.95045 3.18637,-2.236426 3.6875,-4.65625 0.8348,-4.031028 0.27469,-4.761495 -4.46875,-5.53125 -2.99166,-0.48548 -3.77773,-0.259696 -4.28125,1.28125 -1.50179,4.595915 -1.74669,4.924644 -2.15625,2.5625 -0.22243,-1.282856 0.2976,-3.141672 1.1875,-4.125 1.34165,-1.482499 1.43101,-2.225733 0.4375,-4.40625 -1.24525,-2.733027 -3.875,-3.626717 -3.875,-1.3125 0,0.729127 -1.23415,2.416627 -2.71875,3.75 l -2.6875,2.40625 1.6875,-2.6875 c 2.250438,-3.595378 2.163701,-5.297498 -0.46875,-7.75 -4.356724,-4.0589048 -11.78875,-1.3580936 -11.84375,4.3125 -0.0252,2.598388 -0.22383,2.845728 -1.0625,1.40625 -0.6962,-1.194945 -0.65107,-2.393648 0.125,-3.84375 0.93735,-1.751452 0.74485,-2.5388688 -1.15625,-4.5624998 l -1.46865,-0.84375 0,1.375 -0.0798,0.4924485 -0.32647,1.7263013 c 0.003,1.445156 -0.675,3.190311 -1.5,3.875 -1.92249,1.59566 -1.91912,0.05475 0,-3.625 l 1.71875,-2.9374998 0,-1 L 66.323605,5.054563 C 65.700896,4.7477978 64.51428,4.4917372 62.66097,2.9066012 60.80767,1.3214656 58.77375,0.02270324 58.16097,3.5124132e-4 z"
     id="path3108"
     sodipodi:nodetypes="csssssscccssssssssssssssssssscccssssssssssssssssssssscccssssccccscccsssscscssssssssssssssssssssssscccsssscccccsccczsc" />
</svg>
