<?xml version="1.0" encoding="UTF-8" standalone="no"?>
<!-- Created with Inkscape (http://www.inkscape.org/) -->

<svg
   xmlns:svg="http://www.w3.org/2000/svg"
   xmlns="http://www.w3.org/2000/svg"
   version="1.1"
   width="202.41505"
   height="71.847076"
   id="svg3167">
  <defs
     id="defs3171" />
  <path
     d="m 96.583069,70.098443 c -3.32479,-3.673845 -0.48581,-15.521057 5.148391,-21.484571 2.13769,-2.26263 5.11735,-6.048586 6.62147,-8.413239 1.50412,-2.364651 3.38868,-4.550296 4.18791,-4.856988 0.79923,-0.306693 1.45314,-1.184479 1.45314,-1.950635 0,-1.439507 -0.95712,-1.736131 -4.65938,-1.444011 -1.18766,0.09371 -4.57839,-1.19482 -7.53495,-2.8634 -3.733313,-2.106948 -7.808921,-3.370572 -13.340621,-4.136192 -4.38078,-0.606326 -9.09005,-1.479682 -10.46505,-1.940791 -3.53764,-1.186357 -17.11027,-6.089579 -19.5,-7.044533 -10.22579,-4.086306 -20.31391,-4.049598 -36.22184,0.131803 -6.47799,1.702739 -13.5781605,3.72119 -15.7781605,4.485447 -2.2,0.764258 -4.5625,1.396108 -5.25,1.404113 -2.09556997,0.0244 -1.39290997,-1.805315 0.98287,-2.559357 1.87461,-0.594977 7.2682,-2.952107 19.2671305,-8.420208 4.25976,-1.9412385 15.2756,-4.7998535 21.04691,-5.4616805 4.69046,-0.53788 8.61608,-0.131636 17.5,1.81099 20.99905,4.5918155 25.14284,5.0589645 31.74687,3.5789715 2.57887,-0.577939 8.218071,-1.4933215 12.531541,-2.0341845 4.31347,-0.540864 9.49237,-1.630738 11.50868,-2.421943 2.0163,-0.791204 7.266,-1.629113 11.666,-1.862019 4.4,-0.232906 10.925,-0.71921 14.5,-1.080675 4.989,-0.504434 8.1053,-0.199303 13.40566,1.312606 7.65409,2.183302 8.50062,2.059197 13.73824,-2.01409 C 171.37037,1.0976575 173.99777,0 175.92113,0 c 3.14406,0 12.10448,3.9367115 15.24344,6.6971185 0.91882,0.808016 3.16882,2.270109 5,3.249095 4.50047,2.4060485 7.3331,7.2441245 5.8566,10.0029755 -1.54885,2.89406 -6.25114,2.674533 -9.62169,-0.44919 -3.28036,-3.040134 -4.01608,-3.09615 -5.45098,-0.41502 -0.98053,1.832129 -0.53002,2.626841 3.71482,6.553077 4.63056,4.283017 4.75025,4.52803 2.88953,5.915019 -2.66188,1.984172 -2.92472,1.91777 -8.12681,-2.053075 -2.52189,-1.925 -4.98923,-3.5 -5.48298,-3.5 -0.49374,0 -1.56781,-1.2375 -2.38681,-2.75 -3.08461,-5.696557 -3.10415,-5.707745 -6.20887,-3.554445 -1.56937,1.088447 -3.6409,2.263097 -4.6034,2.610334 -0.9625,0.347237 -1.75,1.397531 -1.75,2.333985 0,0.936454 -0.71908,2.497221 -1.59796,3.468371 -2.46947,2.728727 -0.76421,4.192681 4.22828,3.629955 3.16181,-0.356382 4.36968,-0.134885 4.36968,0.801303 0,0.711606 0.5625,1.494722 1.25,1.740258 0.6875,0.245536 0.94835,0.77219 0.57966,1.170343 -0.36869,0.398152 -3.83871,0.07201 -7.71115,-0.724763 -6.67865,-1.374159 -6.99196,-1.357399 -6.09112,0.325838 0.52233,0.975983 1.51735,1.963669 2.21115,2.194859 0.6938,0.231189 1.28168,1.570872 1.30638,2.977073 0.0298,1.693405 -0.39233,2.388938 -1.25,2.059819 -0.7122,-0.2733 -1.29492,-0.86103 -1.29492,-1.306067 0,-0.445037 -1.76582,-2.702829 -3.92404,-5.017315 -3.74351,-4.014542 -4.07244,-4.156428 -7.14923,-3.083853 -1.77385,0.618367 -4.63289,1.124304 -6.35343,1.124304 -2.88024,0 -3.34411,0.495508 -5.8509,6.25 -1.49746,3.4375 -2.72259,6.796667 -2.72252,7.464816 1.5e-4,1.557006 2.86878,3.08138 7.67964,4.080929 0,0 2.21547,1.53677 2.85781,2.671639 0.89104,1.574254 1.13679,5.306383 1.13679,5.306383 0.10758,3.95379 -0.10743,8.74281 -0.62161,9.060589 -0.2405,-0.004 -0.42513,-0.01739 -0.63507,0.0071 -0.49988,0.0583 -0.68161,0.09911 -1.04023,0.03682 -0.28306,-0.04916 -0.82978,-0.03615 -1.13196,-0.03799 -0.26367,-0.0016 -0.54837,-0.04391 -0.9526,-0.0059 -0.97132,0.173129 -0.66069,-3.077563 -0.7807,-4.334356 -0.71299,-7.466593 -1.4494,-8.420856 -8.76195,-11.354049 -2.52778,-1.013937 -2.75,-1.542638 -2.75,-6.542725 0,-2.991808 -0.27314,-6.151455 -0.60699,-7.021439 -0.94256,-2.456277 -3.72955,-1.856227 -5.45523,1.174536 -1.64108,2.88217 -11.29246,8.243677 -14.83965,8.243677 -1.11527,0 -2.56467,1.003214 -3.22088,2.229364 -0.65622,1.226151 -1.79637,2.832618 -2.53368,3.569928 -0.73731,0.737309 -1.57906,2.546595 -1.87054,4.020635 -0.29149,1.47404 -0.92156,3.900319 -1.40017,5.39173 -0.947663,2.953093 -0.01,4.306382 3.42714,4.94443 3.27614,0.60822 2.27063,2.321163 -1.55111,2.642421 -2.546343,0.214047 -4.062881,-0.266982 -5.359801,-1.700065 l 0,-3e-5 z"
     id="path3189"
     style="fill:#000000" />
</svg>
