<?xml version="1.0" encoding="UTF-8" standalone="no"?>
<!-- Created with Inkscape (http://www.inkscape.org/) -->
<svg
   xmlns:svg="http://www.w3.org/2000/svg"
   xmlns="http://www.w3.org/2000/svg"
   version="1.0"
   width="1066.0729"
   height="599.14526"
   id="svg1871">
  <defs
     id="defs1873">
    <marker
       refX="0"
       refY="0"
       orient="auto"
       style="overflow:visible"
       id="Arrow1Lend">
      <path
         d="M 0,0 L 5,-5 L -12.5,0 L 5,5 L 0,0 z "
         transform="matrix(-0.8,0,0,-0.8,-10,0)"
         style="fill-rule:evenodd;stroke:black;stroke-width:1pt;marker-start:none"
         id="path7336" />
    </marker>
    <marker
       refX="0"
       refY="0"
       orient="auto"
       style="overflow:visible"
       id="Arrow1Lstart">
      <path
         d="M 0,0 L 5,-5 L -12.5,0 L 5,5 L 0,0 z "
         transform="matrix(0.8,0,0,0.8,10,0)"
         style="fill-rule:evenodd;stroke:black;stroke-width:1pt;marker-start:none"
         id="path7339" />
    </marker>
  </defs>
  <path
     d="M 593.83473,587.9639 C 594.2802,586.2605 593.85104,585.9669 590.91558,585.9669 C 589.02283,585.9669 586.93031,586.5108 586.26553,587.1756 C 585.57986,587.8613 585.05684,587.9445 585.05684,587.3681 C 585.05684,584.9157 587.99708,582.841 593.49012,581.4176 C 596.74345,580.5744 600.82277,578.9071 602.55528,577.7122 C 604.28776,576.5173 605.8343,575.4526 605.99204,575.3464 C 606.14973,575.24 605.77607,573.167 605.16164,570.7394 C 604.54722,568.3119 604.08104,565.137 604.12567,563.6843 C 604.17031,562.2315 603.54588,560.4943 602.7381,559.8239 C 600.40983,557.8916 597.21872,559.5904 594.18201,564.3788 C 592.64291,566.8057 591.10252,568.5103 590.75896,568.1667 C 590.41536,567.8231 588.09545,569.4214 585.6036,571.7183 C 581.44507,575.5514 580.62134,575.8944 575.57613,575.8944 C 572.55292,575.8944 569.03004,576.2735 567.74752,576.7364 C 566.46501,577.1995 564.2825,577.2851 562.89754,576.9265 C 560.46251,576.2962 560.4465,576.2382 562.41247,575.1668 C 563.53065,574.5574 566.02355,573.8133 567.9523,573.513 C 579.68077,571.6877 578.49245,572.4383 578.66498,566.7457 C 578.77698,563.0503 579.41965,560.987 580.97408,559.3322 C 582.79324,557.3959 582.95146,556.6522 581.99207,554.5466 C 580.70895,551.7304 575.50193,548.2603 573.97513,549.2039 C 573.4223,549.5456 572.96996,550.6606 572.96996,551.6817 C 572.96996,552.8584 571.80855,553.943 569.79795,554.6439 C 565.4024,556.1763 565.02259,556.0871 563.71495,553.2172 C 562.85311,551.3256 562.05639,550.8448 560.56734,551.3174 C 558.95166,551.8301 558.67214,551.5736 559.09304,549.964 C 559.37872,548.8717 559.139,547.1319 558.56038,546.098 C 557.98173,545.0641 557.60665,542.3185 557.72683,539.9968 C 557.84699,537.6752 557.53908,535.5246 557.04252,535.2177 C 555.52898,534.2823 551.56784,539.2699 552.20346,541.3108 C 552.97414,543.7852 551.35762,546.541 550.47883,544.2508 C 549.6772,542.1618 548.02382,542.2076 547.61101,544.3302 C 547.41093,545.359 546.135,543.805 544.30274,540.3012 C 542.66233,537.1642 541.05504,534.5976 540.73096,534.5976 C 539.60961,534.5976 528.99047,524.0146 528.3502,522.2589 C 527.99664,521.2894 527.23989,520.4963 526.66854,520.4963 C 526.09714,520.4963 525.62968,518.9824 525.62968,517.1321 C 525.62968,512.382 522.17503,499.4454 519.79642,495.2883 C 518.69545,493.3642 517.50587,490.1358 517.15292,488.114 C 516.40823,483.8482 515.27349,482.7161 510.7795,481.7552 C 508.43835,481.2547 507.06931,481.5 505.94829,482.6211 C 504.89283,483.6766 503.33436,484.0051 501.15726,483.6312 C 495.91279,482.7304 494.37633,482.8238 484.17044,484.663 C 472.93015,486.6886 470.74734,486.1243 469.96565,480.9901 C 469.68917,479.1743 469.62054,477.5152 469.81315,477.3032 C 470.00574,477.091 473.20577,475.9308 476.92431,474.725 C 480.96517,473.4146 484.10743,471.7462 484.73446,470.57804 C 488.31532,463.90711 490.86164,460.87443 495.48224,457.7775 C 499.8955,454.81953 501.2029,454.40081 504.03265,455.03902 C 505.86994,455.45339 509.68967,455.66742 512.52098,455.51466 C 517.98405,455.21991 523.71146,457.53168 529.07754,462.19739 C 532.63516,465.29069 537.71657,473.3451 537.71657,475.8909 C 537.71657,480.1936 539.99718,480.4493 548.42256,477.0918 C 571.85148,467.75458 571.90697,467.74203 590.59664,467.55277 C 613.59244,467.31984 625.29561,466.55922 626.64509,465.20975 C 627.26041,464.5944 628.47587,464.091 629.34611,464.091 C 632.29999,464.091 646.69863,454.86957 651.89869,449.64752 C 654.74536,446.78876 658.82347,442.05566 660.96111,439.12956 C 663.09869,436.20344 666.41887,432.61098 668.33908,431.14629 C 670.25938,429.68161 673.86389,425.63384 676.34894,422.15123 C 678.83412,418.66861 682.16404,414.72818 683.74876,413.39471 C 685.33355,412.06122 690.17847,406.95439 694.51523,402.04621 C 710.04708,384.46795 757.692,336.19832 759.52989,336.17902 C 759.92805,336.17483 763.32749,334.19588 767.08418,331.78132 C 774.59719,326.95237 811.6203,307.5673 812.20788,308.15484 C 812.68557,308.63265 803.67614,318.04109 802.74082,318.04109 C 802.12232,318.04109 798.64686,320.95086 791.06006,327.82069 C 789.96445,328.8127 787.24492,330.94451 785.01657,332.55803 C 782.7883,334.17154 780.81401,335.87126 780.62935,336.33517 C 780.44476,336.7991 779.8964,337.17867 779.41099,337.17867 C 778.9256,337.17867 776.74824,338.92356 774.57251,341.05618 C 772.39678,343.18884 769.88551,345.21426 768.99202,345.55716 C 768.09845,345.90005 767.36732,346.87471 767.36732,347.72308 C 767.36732,348.57144 766.87336,349.26553 766.26962,349.26553 C 765.66589,349.26553 763.96617,350.40352 762.49246,351.79439 C 761.01878,353.18525 757.0138,355.79148 753.59242,357.58601 C 750.17098,359.38056 746.22234,361.8506 744.81744,363.07502 C 743.41262,364.29943 740.52428,366.1884 738.39877,367.27272 C 736.27343,368.35701 732.06345,371.58498 729.04342,374.4459 C 726.02335,377.30683 722.87247,380.17707 722.04151,380.82422 C 721.21056,381.47138 718.72339,384.26715 716.51427,387.03707 C 714.30533,389.80698 711.01915,393.48657 709.21177,395.21393 C 707.40448,396.94128 705.92564,399.04797 705.92564,399.89543 C 705.92564,400.7429 702.98583,404.54209 699.3928,408.33805 C 695.79967,412.13402 692.85349,415.77668 692.84573,416.43286 C 692.83788,417.08904 689.99867,421.0901 686.53628,425.32408 C 681.00945,432.08259 677.20895,437.08976 670.99878,445.79478 C 669.71537,447.59381 669.61224,448.3272 670.56026,448.91308 C 671.43794,449.45554 671.05591,450.16652 669.25143,451.34887 C 667.84985,452.26722 664.76358,455.62314 662.39293,458.80657 C 660.0224,461.99 657.27112,465.19968 656.27898,465.93927 C 655.18926,466.75158 654.70244,468.00031 655.04934,469.09349 C 655.4015,470.20272 655.02154,471.1341 654.06768,471.5001 C 652.63245,472.0509 650.03045,476.8226 650.33303,478.3488 C 650.40506,478.7119 648.88332,480.2144 646.95154,481.6878 C 645.01963,483.1614 643.66178,484.7274 643.93414,485.1679 C 644.20642,485.6085 642.59653,487.6141 640.35659,489.6249 C 637.05486,492.589 636.42137,493.7117 637.00963,495.5571 C 637.4087,496.809 637.78063,499.4197 637.8361,501.3588 C 637.89182,503.3068 638.9957,506.3684 640.30341,508.2019 L 642.66985,511.5197 L 640.05159,510.8627 C 636.97452,510.0904 636.97504,510.0882 639.0032,514.9423 C 639.86662,517.0088 640.43321,518.7639 640.26227,518.8426 C 640.09129,518.921 638.94953,519.5446 637.72497,520.2282 C 636.50043,520.9116 634.75494,521.1856 633.84617,520.8368 C 632.22922,520.2162 630.42926,521.9148 630.39807,524.0904 C 630.38958,524.6823 631.9687,526.9487 633.9072,529.1266 C 635.84572,531.3047 637.43212,534.1249 637.43255,535.3938 C 637.433,536.6628 638.45315,539.0843 639.69965,540.775 C 642.88853,545.1007 642.57377,556.0918 639.09379,561.9274 L 636.70025,565.9413 L 633.61894,562.8599 C 631.9242,561.1653 630.07072,559.7787 629.50004,559.7787 C 628.3792,559.7787 617.06407,572.5499 615.3541,575.745 C 614.78134,576.8151 611.81167,579.1023 608.75482,580.8274 C 605.69798,582.5527 602.63243,584.8681 601.94252,585.9728 C 601.25258,587.0775 599.86083,587.9814 598.84969,587.9814 C 597.83858,587.9814 596.17906,588.4267 595.16189,588.9712 C 593.60871,589.8023 593.39613,589.6411 593.83473,587.9639 z M 617.16635,564.418 C 620.01406,560.4535 620.78968,558.336 621.13309,553.5885 C 621.36787,550.3427 621.08899,546.4417 620.51336,544.9194 C 619.93773,543.3974 619.21501,541.0188 618.9073,539.6338 C 618.25318,536.6896 613.55322,530.9465 612.58791,531.9119 C 612.22418,532.2756 612.52869,534.3975 613.26458,536.6273 C 614.00049,538.857 614.52993,541.4656 614.44112,542.4238 C 614.35234,543.3823 614.27152,545.815 614.26156,547.83 C 614.24015,552.151 611.93572,554.6641 609.43894,553.0892 C 608.25474,552.3423 607.02553,552.4978 604.99717,553.6512 C 601.56116,555.6053 601.4645,556.5348 604.57443,557.7172 C 607.17004,558.704 609.52219,563.8902 608.53773,566.4558 C 607.86588,568.2065 609.93465,569.989 612.18396,569.5973 C 612.97733,569.4592 615.21939,567.1286 617.16635,564.418 z M 585.05684,563.8336 C 585.05684,563.2937 586.42908,562.1426 588.10627,561.2752 C 589.78343,560.4079 593.48844,557.5079 596.33961,554.8308 C 601.44116,550.0405 601.50259,549.9127 600.20545,546.7811 C 599.48053,545.031 597.58857,541.9647 596.0011,539.9671 C 594.41361,537.9695 593.11476,535.9378 593.11476,535.4523 C 593.11476,533.7758 588.57926,527.575 587.58545,527.8927 C 587.03722,528.068 586.7321,529.8759 586.90735,531.91 C 587.13554,534.5588 586.77521,535.7817 585.63779,536.2182 C 584.7643,536.5534 584.04959,537.8963 584.04959,539.2025 C 584.04959,541.8195 579.92795,544.8956 579.22942,542.8 C 578.50186,540.6173 575.99169,541.6069 575.99169,544.0766 C 575.99169,545.9583 577.01279,546.9991 580.52808,548.7008 C 583.29601,550.0407 585.28112,551.7599 585.62016,553.1107 C 586.23069,555.5433 584.78841,560.2104 583.10451,561.2511 C 581.49942,562.243 581.81804,564.8149 583.546,564.8149 C 584.37697,564.8149 585.05684,564.3732 585.05684,563.8336 z "
     style="fill:#68c775;fill-opacity:1"
     id="path1924" />
  <path
     d="M 414.68415,596.0258 C 413.44811,595.4726 412.55422,594.5022 411.97084,593.0799 C 411.49238,591.9134 410.0619,590.0519 408.79229,588.9432 C 406.57119,587.0032 406.47969,586.7909 406.3779,583.3362 C 406.31968,581.3611 406.24564,579.3411 406.2133,578.8473 C 406.18086,578.3532 404.64055,576.4212 402.7902,574.5537 C 400.9399,572.6861 399.4303,570.6928 399.43557,570.1246 C 399.44082,569.5565 399.94117,567.1994 400.54741,564.8864 C 401.15431,562.5704 401.65836,558.7914 401.66917,556.4759 C 401.67993,554.1631 401.93492,549.9995 402.23579,547.2242 C 402.83207,541.7246 402.37243,537.1522 400.43224,529.2817 C 399.77068,526.598 399.23191,522.0929 399.09113,518.0674 C 398.93541,513.6136 398.49749,510.2017 397.79579,507.9748 C 396.36885,503.4458 395.08711,497.4902 394.65371,493.3754 C 394.25669,489.6062 395.12209,480.3538 396.28298,475.9563 C 396.9273,473.5156 396.91972,472.8142 396.23172,471.1903 C 395.78805,470.14318 395.05878,467.89834 394.61123,466.20227 C 393.61644,462.43227 392.13815,443.63011 392.13733,434.73629 C 392.1367,427.05344 391.21068,421.26415 388.52581,412.15661 C 385.85425,403.0942 385.63502,402.97844 384.83108,410.20629 C 384.54409,412.78672 384.05367,415.957 383.74125,417.25134 C 383.4288,418.54566 383.17207,420.18578 383.17076,420.89589 C 383.16949,421.60599 383.082,428.99963 382.97637,437.32608 C 382.80506,450.82181 382.64779,452.98772 381.52723,457.2798 L 380.27016,462.09454 L 381.70064,466.81186 C 384.11667,474.779 384.93395,481.3695 384.23216,487.2252 C 383.89923,490.0027 383.28892,493.789 382.87585,495.6394 C 382.46279,497.4898 381.96542,500.7699 381.77064,502.9286 C 381.57589,505.087 381.19214,507.989 380.91794,509.3766 C 380.6437,510.7645 379.99954,514.0443 379.48629,516.6658 C 378.65499,520.912 378.25446,534.027 378.92306,535.1089 C 379.04323,535.3033 379.41788,539.4965 379.75555,544.4272 C 380.09315,549.3578 380.65142,555.5629 380.99609,558.2168 C 381.95853,565.6271 380.49213,567.6253 373.05911,569.0319 C 365.6815,570.4279 364.07891,571.7629 359.524,580.3057 C 358.39094,582.4307 355.20359,584.0593 351.53123,584.3892 C 349.92555,584.5334 348.19281,585.077 347.56081,585.635 C 345.98071,587.0297 344.2056,587.462 341.75609,587.0481 C 339.09683,586.5987 335.64709,583.5948 334.93358,581.1071 C 334.21818,578.6126 335.11127,573.2262 336.6542,570.7299 C 338.18473,568.2534 341.11033,566.0134 342.84772,565.9878 C 343.5896,565.9769 344.78188,565.6434 345.49723,565.2463 C 347.69974,564.0244 357.8312,553.6135 358.89335,551.4809 C 360.26131,548.7342 360.11644,540.7984 358.54454,532.3655 C 357.03977,524.2932 355.28263,515.2494 354.29588,510.498 C 353.00062,504.262 352.22892,498.8506 352.40086,497.2114 C 352.49154,496.3465 352.38498,495.3461 352.16396,494.9884 C 351.18321,493.4018 351.07076,481.002 351.9811,474.8418 C 352.78392,469.40932 352.80014,468.33857 352.10899,466.37968 C 350.97537,463.16666 348.96263,452.97255 348.96263,450.4442 C 348.96263,449.26431 348.60157,447.2179 348.16035,445.89641 C 345.54577,438.06653 345.14712,434.93465 344.42801,416.58 C 344.12603,408.87038 343.64766,400.79623 343.36522,398.63744 C 343.08279,396.47885 342.6775,391.29963 342.46462,387.12836 C 342.05056,379.01339 342.62122,375.19725 345.18547,368.93499 C 346.01114,366.91857 346.45952,364.12234 346.76154,359.10796 C 347.56464,345.76939 348.19896,341.81444 350.62858,334.99755 C 353.24575,327.6545 353.59719,323.21031 352.02507,317.33541 C 350.62112,312.08913 349.52552,305.53129 348.99402,299.19318 C 348.72613,295.99948 348.22876,293.10812 347.88864,292.76795 C 347.4379,292.31727 346.5489,292.90357 344.60979,294.9301 C 342.50162,297.13348 340.87549,298.1474 336.77759,299.81337 C 333.93318,300.96984 331.30204,301.91596 330.93055,301.91596 C 330.55917,301.91596 327.71663,302.95705 324.61383,304.22947 C 319.20884,306.44576 318.78422,306.53005 314.48296,306.23971 C 309.2913,305.88944 304.61856,304.94425 303.33803,303.9854 C 302.77061,303.56058 301.93254,300.72109 301.03346,296.17799 C 298.68545,284.31244 299.23495,269.57856 302.75204,250.09834 C 303.80525,244.26503 304.66685,238.84018 304.66666,238.0432 C 304.66654,237.24613 304.13562,235.20627 303.48678,233.51012 C 302.03598,229.71734 300.74701,222.10513 300.74416,217.31327 C 300.74296,215.34369 300.46903,211.55894 300.13543,208.90268 C 299.60317,204.66562 299.65482,203.69482 300.55592,200.98927 C 301.70074,197.55221 303.2938,196.71601 305.27735,198.51105 C 306.55658,199.66878 306.38058,199.83136 308.18776,195.82366 C 309.29834,193.36078 309.98567,192.53175 311.16176,192.23659 C 312.30949,191.9485 312.89552,192.11826 313.50943,192.91658 C 313.95943,193.5017 314.43763,193.72821 314.57216,193.41981 C 316.1717,189.75157 316.81999,188.93414 318.12918,188.93414 C 319.29482,188.93414 319.55467,189.23534 319.70131,190.75644 C 319.87213,192.52788 321.02021,193.22859 321.76843,192.01799 C 322.49824,190.83709 323.8234,191.54178 324.66804,193.55994 C 325.40177,195.31326 325.4828,197.06903 325.1556,204.12819 C 324.78117,212.20608 325.27573,217.24971 326.44223,217.24971 C 326.67613,217.24971 327.85845,216.23491 329.06956,214.99467 C 332.687,211.28996 338.98451,210.51085 339.77735,213.66997 C 340.07858,214.87028 339.64477,215.55287 336.94548,218.12592 C 334.75765,220.2114 333.23061,222.32736 332.07667,224.87228 C 331.15194,226.91162 329.24077,229.81452 327.82965,231.3232 C 324.72012,234.64751 323.45335,238.13192 322.24435,246.68662 C 320.69771,257.63096 321.86646,270.53011 324.40312,270.51119 C 324.8044,270.50819 326.22343,269.6385 327.55669,268.57868 C 328.88999,267.51868 330.78235,266.38655 331.76206,266.06251 C 333.10069,265.61988 334.10037,264.53871 335.78604,261.71047 C 338.82368,256.61367 345.05185,252.04079 351.24364,250.36096 C 353.57743,249.72785 356.17378,249.20992 357.01309,249.20992 C 358.53399,249.20992 360.68506,248.2106 364.9427,245.52622 C 366.17623,244.74869 369.01361,243.23369 371.24796,242.15963 C 373.48235,241.08571 375.67558,239.64646 376.12168,238.9612 C 376.5678,238.27601 377.10046,235.82304 377.30537,233.51012 C 377.61367,230.0297 377.47676,228.73529 376.51095,226.00045 C 375.86922,224.18306 374.98653,222.29065 374.54948,221.79517 C 373.64857,220.7737 370.83626,213.93367 370.81827,212.72007 C 370.80804,212.03372 369.61311,208.49873 367.36214,202.49572 C 366.89253,201.24321 367.01547,200.17239 367.95931,197.29742 C 368.613,195.30597 369.14883,192.7357 369.15008,191.58573 C 369.15276,188.91761 370.78337,186.23789 372.9506,185.34016 C 373.95515,184.92416 375.34184,183.51515 376.36213,181.87383 C 378.14491,179.006 379.78947,178.00038 382.69695,178.00038 C 383.65931,178.00038 385.7744,177.15227 387.56664,176.04779 C 394.19063,171.96543 400.39684,172.52544 404.85934,177.60792 C 405.78058,178.6571 407.16476,179.67374 407.93536,179.86723 C 410.27013,180.45324 412.17977,182.35545 413.24421,185.15543 C 413.79973,186.61698 415.20671,189.54967 416.37074,191.67261 C 419.46535,197.3167 419.92309,199.44489 418.7239,202.61498 C 418.18716,204.03371 417.37235,205.77605 416.91314,206.48664 C 416.45389,207.19731 416.10765,208.585 416.14363,209.57052 C 416.24234,212.27008 415.23595,214.80574 413.6541,215.84206 C 411.09307,217.52016 407.83651,226.45972 407.83651,231.81205 C 407.83651,234.80848 410.35919,237.96632 416.27054,242.36925 C 418.87895,244.31206 422.03456,246.90091 423.28317,248.12238 C 425.57304,250.36246 426.51465,250.68763 433.86236,251.77442 C 435.55908,252.02543 436.85942,252.86872 439.58416,255.4851 C 442.68333,258.46095 443.4237,259.61349 445.69917,265.00437 L 448.28807,271.13775 L 448.13674,278.537 C 448.04547,282.9975 448.22248,286.38131 448.58244,287.05733 C 450.07065,289.85186 450.69695,296.26266 450.60933,307.8034 C 450.52602,318.78185 450.61896,319.97634 451.98245,325.46556 C 453.93231,333.3153 454.01889,345.00965 452.18181,352.37949 C 451.52837,355.00075 450.51247,359.29003 449.92429,361.91148 C 449.33612,364.53275 448.56487,367.43424 448.21041,368.35956 C 447.27925,370.78976 443.67767,388.92488 443.14373,393.87162 C 442.0594,403.91706 441.022,408.94848 439.65079,410.8117 C 438.90472,411.82563 437.75535,413.72366 437.09655,415.02942 C 436.43778,416.33537 434.77997,418.77737 433.41265,420.45607 C 430.66767,423.82604 430.55381,424.08846 429.74011,428.91552 C 428.65143,435.37371 426.93654,442.12824 425.71647,444.76354 C 424.71674,446.92289 424.45939,448.62331 424.33856,453.86697 C 424.25687,457.41333 423.90205,462.41616 423.5501,464.98423 C 423.14105,467.9688 423.10363,469.89048 423.4464,470.31088 C 423.74137,470.67248 424.65498,473.7163 425.47665,477.0749 C 427.35591,484.7562 428.35986,498.0869 427.55029,504.6107 C 426.30664,514.6328 424.07458,526.2817 421.1576,537.9725 C 420.10898,542.1755 419.36906,546.6647 419.30932,549.1866 C 419.25442,551.4996 419.0224,554.4826 418.79352,555.8159 C 418.43601,557.899 418.61566,558.688 420.07076,561.4229 C 421.00201,563.1737 422.42617,566.3724 423.23559,568.5308 C 424.04486,570.6897 425.42153,573.9696 426.29469,575.8201 C 429.90547,583.4715 430.26442,584.3634 430.25943,585.6694 C 430.25303,587.3275 427.54514,592.1528 425.61261,593.9496 C 423.19946,596.1933 417.48465,597.2787 414.68415,596.0258 z M 430.1361,378.46998 C 431.26634,375.07606 432.0431,358.15136 431.34327,352.16594 C 431.01453,349.35362 430.80298,343.01569 430.87328,338.08149 C 430.99243,329.72226 430.90644,328.86118 429.61285,325.46031 C 428.16698,321.65935 426.50814,318.73707 425.79623,318.73707 C 425.21057,318.73707 422.97162,326.52387 422.97382,328.55322 C 422.97476,329.48043 423.22228,331.09938 423.52381,332.15077 C 424.5495,335.72715 425.4249,348.17674 424.7806,350.02495 C 424.30818,351.38016 424.41557,352.45534 425.30535,355.27816 C 426.10035,357.80034 426.57345,361.58613 426.93993,368.35956 C 427.51628,379.0087 427.82862,381.13152 428.77376,380.8219 C 429.1312,380.70482 429.74423,379.64649 430.1361,378.46998 z "
     style="fill:#41b5e1;fill-opacity:1"
     id="path2084" />
  <path
     d="M 0.45267323,576.9648 L 987.01506,576.9648"
     style="fill:none;fill-rule:evenodd;stroke:#b4b4b4;stroke-width:2;stroke-linecap:butt;stroke-linejoin:miter;stroke-miterlimit:4;stroke-dasharray:none;stroke-opacity:0.29019608"
     id="path6750" />
  <path
     d="M 0.45272023,345.13777 L 987.01496,345.13777"
     style="fill:none;fill-rule:evenodd;stroke:#b4b4b4;stroke-width:2;stroke-linecap:butt;stroke-linejoin:miter;stroke-miterlimit:4;stroke-dasharray:none;stroke-opacity:0.29019608"
     id="path6754" />
  <path
     d="M 0.45267323,113.31042 L 987.01506,113.31042"
     style="fill:none;fill-rule:evenodd;stroke:#b4b4b4;stroke-width:2;stroke-linecap:butt;stroke-linejoin:miter;stroke-miterlimit:4;stroke-dasharray:none;stroke-opacity:0.29019608"
     id="path6766" />
  <path
     d="M 606.84792,0.51887995 L 606.84792,598.6264"
     style="fill:none;fill-rule:evenodd;stroke:#b4b4b4;stroke-width:2;stroke-linecap:butt;stroke-linejoin:miter;stroke-miterlimit:4;stroke-dasharray:none;stroke-opacity:0.29019608"
     id="path6780" />
  <path
     d="M 1065.554,0.51887995 L 1065.554,598.6264"
     style="fill:none;fill-rule:evenodd;stroke:#b4b4b4;stroke-width:1.0377599;stroke-linecap:butt;stroke-linejoin:miter;stroke-miterlimit:4;stroke-dasharray:none;stroke-opacity:0.29019608"
     id="path6788" />
  <path
     d="M 148.14142,0.51887995 L 148.14142,598.6264"
     style="fill:none;fill-rule:evenodd;stroke:#b4b4b4;stroke-width:2;stroke-linecap:butt;stroke-linejoin:miter;stroke-miterlimit:4;stroke-dasharray:none;stroke-opacity:0.29019608"
     id="path6792" />
  <path
     d="M 836.20088,0.51887995 L 836.20088,598.6264"
     style="fill:none;fill-rule:evenodd;stroke:#b4b4b4;stroke-width:2;stroke-linecap:butt;stroke-linejoin:miter;stroke-miterlimit:4;stroke-dasharray:none;stroke-opacity:0.29019608"
     id="path6796" />
  <path
     d="M 377.49468,0.51887995 L 377.49468,598.6264"
     style="fill:none;fill-rule:evenodd;stroke:#b4b4b4;stroke-width:2;stroke-linecap:butt;stroke-linejoin:miter;stroke-miterlimit:4;stroke-dasharray:none;stroke-opacity:0.29019608"
     id="path6798" />
  <g
     id="g6514">
    <text
       x="576.87408"
       y="90.107445"
       style="font-size:47.95211029px"
       id="text7348"
       xml:space="preserve"><tspan
         x="576.87408"
         y="109.28829"
         id="tspan7350">2m</tspan></text>
    <path
       d="M 384.54687,93.42312 L 545.26342,93.42312"
       style="fill:none;fill-rule:evenodd;stroke:black;stroke-width:2;stroke-linecap:butt;stroke-linejoin:miter;marker-start:none;marker-mid:none;marker-end:none;stroke-miterlimit:4;stroke-dasharray:none;stroke-opacity:1"
       id="path7164" />
    <path
       d="M 407.51679,85.74835 L 392.9944,89.61658 L 378.47202,93.4848 L 392.9944,97.35302 L 407.51681,101.22125 L 399.51535,93.4848 L 407.51679,85.74835 z "
       style="fill:black;fill-opacity:1;stroke:none;stroke-width:2.5;stroke-miterlimit:4;stroke-dashoffset:0;stroke-opacity:0.29019608"
       id="path1911" />
    <path
       d="M 806.71272,85.74835 L 821.23511,89.61658 L 835.75749,93.4848 L 821.23511,97.35302 L 806.7127,101.22125 L 814.71416,93.4848 L 806.71272,85.74835 z "
       style="fill:black;fill-opacity:1;stroke:none;stroke-width:2.5;stroke-miterlimit:4;stroke-dashoffset:0;stroke-opacity:0.29019608"
       id="path5569" />
    <path
       d="M 659.29578,93.59205 L 820.01233,93.59205"
       style="fill:none;fill-rule:evenodd;stroke:black;stroke-width:2;stroke-linecap:butt;stroke-linejoin:miter;marker-start:none;marker-mid:none;marker-end:none;stroke-miterlimit:4;stroke-dasharray:none;stroke-opacity:1"
       id="path5573" />
  </g>
  <g
     transform="translate(0,-3.33759)"
     id="g6536">
    <path
       d="M 109.4888,122.39425 L 109.4888,283.1108"
       style="fill:none;fill-rule:evenodd;stroke:black;stroke-width:2;stroke-linecap:butt;stroke-linejoin:miter;marker-start:none;marker-mid:none;marker-end:none;stroke-miterlimit:4;stroke-dasharray:none;stroke-opacity:1"
       id="path5591" />
    <path
       d="M 117.16357,145.36417 L 113.29534,130.84178 L 109.42712,116.3194 L 105.5589,130.84178 L 101.69067,145.36419 L 109.42712,137.36273 L 117.16357,145.36417 z "
       style="fill:black;fill-opacity:1;stroke:none;stroke-width:2.5;stroke-miterlimit:4;stroke-dashoffset:0;stroke-opacity:0.29019608"
       id="path5593" />
  </g>
  <g
     transform="translate(0,3.185881)"
     id="g6540">
    <path
       d="M 117.16357,544.5601 L 113.29534,559.0825 L 109.42712,573.6048 L 105.5589,559.0825 L 101.69067,544.56 L 109.42712,552.5615 L 117.16357,544.5601 z "
       style="fill:black;fill-opacity:1;stroke:none;stroke-width:2.5;stroke-miterlimit:4;stroke-dashoffset:0;stroke-opacity:0.29019608"
       id="path5595" />
    <path
       d="M 109.31987,397.14316 L 109.31987,557.8597"
       style="fill:none;fill-rule:evenodd;stroke:black;stroke-width:2;stroke-linecap:butt;stroke-linejoin:miter;marker-start:none;marker-mid:none;marker-end:none;stroke-miterlimit:4;stroke-dasharray:none;stroke-opacity:1"
       id="path5597" />
  </g>
  <text
     x="79.454514"
     y="325.83853"
     style="font-size:47.95211029px"
     id="text5611"
     xml:space="preserve"><tspan
       x="79.454514"
       y="345.01938"
       id="tspan5613">2m</tspan></text>
</svg>
